<?xml version="1.0" encoding="UTF-8"?>
<svg xmlns="http://www.w3.org/2000/svg" version="1.1" xmlns:cc="http://creativecommons.org/ns#" xmlns:dc="http://purl.org/dc/elements/1.1/" xmlns:inkscape="http://www.inkscape.org/namespaces/inkscape" xmlns:rdf="http://www.w3.org/1999/02/22-rdf-syntax-ns#" xmlns:sodipodi="http://sodipodi.sourceforge.net/DTD/sodipodi-0.dtd" xmlns:svg="http://www.w3.org/2000/svg" viewBox="0 0 610 477">
  <defs>
    <style>
      .cls-1 {
        fill: #194619;
      }

      .cls-2 {
        fill: #f5dc00;
      }

      .cls-3 {
        fill: #232800;
      }

      .cls-4 {
        fill: #194119;
      }
    </style>
  </defs>
  <!-- Generator: Adobe Illustrator 28.7.1, SVG Export Plug-In . SVG Version: 1.2.0 Build 142)  -->
  <g>
    <g id="Camada_1">
      <g id="svg2" inkscape:output_extension="org.inkscape.output.svg.inkscape" sodipodi:docname="Gadsden_flag.svg" sodipodi:version="0.32">
        <sodipodi:namedview id="base" bordercolor="#666666" borderopacity="1.0" gridtolerance="10.0" guidetolerance="10.0" inkscape:current-layer="layer1" inkscape:cx="527.25118" inkscape:cy="300" inkscape:pageopacity="0.0" inkscape:pageshadow="2" inkscape:window-height="912" inkscape:window-width="1265" inkscape:window-x="0" inkscape:window-y="25" inkscape:zoom="0.6" objecttolerance="10.0" pagecolor="#ffffff" showgrid="false"/>
        <g id="_x3C_defs">
          <inkscape:perspective id="perspective25" inkscape:persp3d-origin="450 : 200 : 1" inkscape:vp_x="0 : 300 : 1" inkscape:vp_y="0 : 1000 : 0" inkscape:vp_z="900 : 300 : 1" sodipodi:type="inkscape:persp3d"/>
        </g>
        <g id="layer1">
          <rect id="rect18474" class="cls-2" width="610" height="477"/>
          <path id="path6091" class="cls-1" d="M306.4,322.3c-.5.2-2.9,3.4-5.7,7.4-3.9,5.7-6,7.9-7.8,8.1-1.4.2-2.9.7-3.4,1.2-1.7,1.6-2.5,1-3.2-2.8-.4-2.1-1.1-4.6-1.7-5.8-1.7-3.3-6-8.6-6.5-8.1s0,1.1.7,1.9c1.6,1.9,1,11.8-.7,12.4-.7.2-1.2-.3-1.2-1.1s-.7-2-1.5-2.7c-1.2-1-1.5-1-1.5.4s-.7,1.6-1.5,1.6-1.5-.9-1.5-2.3c0-3.2-1.9-5-3.7-3.5-1.1.9-2.2.3-5.3-2.7-4.2-4.1-4.5-3.9-3,1.3.8,2.7.6,3.4-.9,4.2-2.5,1.3-3,1.3-3-.4s-6.9-6.6-8.3-6.6-.1,1.3,0,2.9c.6,4.2-1.5,4.8-5,1.5l-3.1-2.8.6,3.2.6,3.2-2.9-1.5c-4-2.1-4.2-2-3.8,1.8.3,2.8,1.1,3.7,6.3,6.5,10.2,5.5,27.4,10.6,40,11.9l5.8.6h1.2c19,1.5,39.2-.4,55.8-10.2-.7,0-1-.7-.6-1.7.5-1.4.2-1.6-2.5-1.1-4.3.9-4.9-.7-1.8-5.4l2.6-4-7,3.5c-3.9,1.9-7.4,3.4-7.8,3.3s-1.8.2-3.1.6c-1.3.4-2.6.6-2.8.3-.7-.7,3.1-7.9,6.3-11.8,3.2-3.9,1.7-2.9-7.3,4.8-5.5,4.8-9.9,7.3-12.4,7.3s-1.2-7.6,0-12c.5-1.9.8-3.6.6-3.8h0v.4Z"/>
          <path id="path6089" class="cls-3" d="M316.8,337.5c1.1,0,1.1-.2,0,3.8-.8,2.9-.8,3.2.8,2.6,6-2.5,4.3,1.3-5,4.9.2-.3.2-.6.2-1,0-3,2.9-10.4,4.1-10.4h-.1Z"/>
          <path id="path3164" class="cls-3" d="M296.9,339.8h1.1l3.8.2-2.7,4.8c-2.1,3.7-2.7,4.3-3.1,2.8-.5-1.8-.7-1.7-3.2.5-1,.9-2.9,1.5-4.1,1.9l-1.9-2.3c-1.5-1.8-2.7-4.2-2.7-5.4,0-1.8.3-1.7,1.8,1.1l1.8,3.3,3.4-3.5c2.4-2.5,3.7-3.2,6-3.3h-.2Z"/>
          <path id="path9992" class="cls-1" d="M167.6,330.7c-.6,0-1.3,3.4-2.3,10.1-1,6.8-2.2,12.9-2.6,13.7-.6,1-1.5,0-3.4-3.8-1.4-2.9-3.5-6.6-4.5-8.3l-1.9-3.1-.8,5.3-.8,5.3-4-5.5-4-5.4-.5,4.4-.5,4.4-4.3-3.6c-2.4-2-4.5-3.6-4.7-3.6s.3,2.1,1.1,4.7c2.5,8.2,2,9.1-2.5,5-2.2-1.9-4.9-4-6-4.7-2-1-2.1-.9-1.5,1.4.4,1.4.3,2.6,0,2.6s-3.3-2.5-6.6-5.7c-6.3-6-6.6-5.9-4.9,2.7.6,2.9.9,5.5.7,5.6-.2.2-2.5-.4-5.2-1.2-2.7-.8-6.7-1.9-8.8-2.4l-3.9-.9,2.6,2.7c1.4,1.5,2.6,3,2.6,3.3s-3.9-.5-8.8-1.8c-10.5-2.9-10.6-2.9-9.3-.5,1.2,2.2.9,2.4-3.5,3.5l-3,.8,5,2c7.4,2.9,7.7,3.8,1.4,3.8s-14.8,3.3-11.9,4.2c.8.3,5.5,1,10.5,1.7s11.2,1.7,14,2.4l5,1.2-4.8.3c-2.6.2-4.8.8-4.8,1.4,0,1-2.1.7-7.2-.8-1.2-.3-1.8,0-1.8,1.1s-1,1.5-6.6.9c-6.4-.7-6.6-.6-5.9,1.5q.8,2.5-7,1.1c-3.3-.6-7.5-1.3-9.4-1.6l-3.5-.6,2.8,3,2.8,3-3.8,1-3.8,1,3,1.2c3.9,1.6,11,2.9,21.5,3.9l8.5.8-3.5,1.6-3.5,1.6h3.6c2,.1,8.5-.7,14.5-1.8,14.8-2.7,17.4-2.6,10.9.6-6.3,3-4.7,3,8.5,0,5.8-1.3,10.7-2.2,10.9-2s-.2,1.1-.9,1.9c-1.1,1.3-1.1,1.4,0,1,3-1.1,19.2-5.5,20-5.5,2.1,0,.5,2-3.9,4.8-2.6,1.7-4.2,3.1-3.5,3.1,2.7,0,21.1-6.4,25.8-9,2.8-1.5,6.3-3.1,8-3.4s3.8-.9,4.8-1.2c1.3-.4,1.8,0,1.8,1.5s.2,2.1.4,2.1,3.9-.7,8.2-1.5c8.8-1.7,11.3-1.9,11.3-.7s-6.1,4.4-13.4,6.9l-7.1,2.3,6-.7c3.3-.4,13.2-2.1,22-3.9s16.2-3.1,16.4-2.9-1.1,1.2-2.9,2.3l-3.3,2,7.9.3c8.6.3,8.6.1-1.1,4.3-2.2,1-3.4,1.9-2.7,2.2,1.1.4,9.3-.7,17.2-2.4,2.3-.5,2.2-.3-1,2.5-3.4,3-3.5,3.1-1,3.1s6-.6,10.3-1.5c10.2-1.9,14.7-2,14.7,0s-1.2,2.1-2.8,2.9c-3.4,1.8-2.2,1.9,6.6.4,3.8-.6,7.6-.9,8.6-.5,1.7.6,1.7.9.2,3.1l-1.6,2.4,4.7-1.4c2.6-.8,4.9-1.4,5-1.4s.2.9.2,2c0,2.6.2,2.6,6.6-1.5,6.3-4,7.4-4.3,7.4-1.5s0,2.4,3.6.5c1.5-.8,3.2-1.2,3.6-.9,1.9,1.1.5,3.5-4.4,7.8-4.3,3.7-4.8,4.6-3.1,4.6,3.8,0,15-3.9,16.8-6,1-1.1,2.7-2,3.8-2s3.5-1,5.4-2.1c4.7-2.9,6.8-1.9,5.9,2.9l-.7,3.8,2.3-2.5c1.3-1.4,3-3.6,4-5l1.7-2.5v4.8l2.4-2.3c2.6-2.4,4.6-2.1,4.6.7s.3,1.2,1.6-.6c1.5-2.1,1.6-2.2,4.2-.5,2.5,1.7,2.6,1.7,2,0-.8-2.1,1-2.3,3.7-.2,1.4,1,2.3,1.2,3.2.4.9-.7,2.4-.7,4.8,0s3.6.6,3.6,0c0-1,5.8-.5,11.8.9,1.8.4,2.1.2,1.6-1.2-.6-1.6-.2-1.7,4.2-1.1,2.7.4,5.8,1,6.9,1.3,1.8.5,1.9.4.5-1.2s-1.3-1.7.6-1.1c2.1.7,17,3.6,18.2,3.6s-1.1-1.2-3.2-2.8c-4.5-3.2-3.5-3.7,4.8-2.4,5,.8,5.8.7,6.7-.9.9-1.7,1.2-1.7,5.6.2,3.4,1.5,4.8,1.7,5.4.8.5-.8,2.4-.2,6.4,2.1,5.3,3,5.7,3.1,5,1.1-.8-2.5.6-2.8,2.5-.6.9,1.1,1.6,1.2,2.6.4.7-.6,2.3-.8,3.5-.4,1.4.4,2.5.2,3-.6.6-1,1.5-.7,3.8,1.5,2,1.9,3.1,2.4,3.3,1.5.3-1,1.4-.9,4.7.4,5.3,2.1,5.5,2.1,4.9-.3-.6-2.3,0-2.4,3.8-1,1.8.7,3.2.6,4.5-.2,1.5-1,2.2-1,3.2,0,1.6,1.6,2.8,1.5,2.8-.2s.5-1.3,2.7-.4c1.8.7,2.9.7,3.3,0,1-1.6,21.8-1.9,22.8-.3,1.9,3,13.7,5.9,12.6,3-.7-1.7,14.5-5.6,21.2-5.5,3.9.1,6.2-.5,9.8-2.6,2.6-1.5,4.7-2.9,4.7-3.1s-1.7.3-3.8,1c-2.5.9-8.5,1.3-18.2,1.3h-14.5l7.5-1.4c4.1-.7,10.2-2.3,13.5-3.5,6.3-2.3,17.8-8,17.2-8.6-.2-.2-6.7,1-14.5,2.7s-15.2,3-16.4,3,1.3-2.1,8-6.1c5.7-3.4,10.1-6.3,9.9-6.5-.2-.2-3.5.5-7.3,1.6-10.4,3-11.5,2.5-4.8-2,5.4-3.6,10.4-8,9.1-8s-5.1,1.4-10.8,3c-5.6,1.7-10.4,2.8-10.7,2.6-.3-.3.3-1.6,1.2-3.1,2.1-3.2,1.5-3.2-3.1,0-2,1.4-4.3,2.5-5.1,2.5s-4.1,1.4-7.4,3c-13.2,3.4-26.7,5.1-40.2,4.8-5.3-.4-14.3-5.7-17.3-6.1-.3-1.1-5,1.2-6,1.2s-2.5-1-3.4-2.2l-1.8-2.2-3.1,2.2c-3.9,2.8-4,2.8-4.8-.9l-.7-3.1-1.8,3c-2.6,4.3-4,4.8-4,1.4s-.7-5.3-1.6-8.2l-1.6-5.4-2.5,4.9c-1.4,2.7-3.1,5.6-3.9,6.4-1.2,1.3-1.4,1.2-1.4-.8s-.4-2.1-2.7-1.6c-2.3.6-2.6.4-1.9-1.2.4-1,1.6-4,2.6-6.6l1.9-4.7-6.5,4.6c-3.6,2.5-6.8,4.4-7,4.1-.3-.3,0-1.8.6-3.3.9-2.3,0-1.7-5.7,3.5l-26.9,15.1-19.7,9c-2.5,1.5-6.7,3.9-9.9,4.6-6.6,1.4-12.9,1.7-31.8,1.7s-25.1-.3-39.4-2.8c-8.7-1.5-20.1-3.8-25.2-5.1-21.9-5.6-43.7-19.7-53.5-34.7-3.6-5.6-3.7-5.7-5.5-3.8q-1.8,2-4.6-.7c-2.7-2.6-2.8-2.6-2.8-.6s-.4,2.4-.9,2.7-1.2-3.4-1.6-8.2c-.6-6.7-1-10.1-1.6-10.1l.2.2Z"/>
          <path id="path9990" class="cls-3" d="M361.6,381.8c-2.8,2.6-6.5,6.9-9.2,9.5-3.7,3.6-7.1,6.2-7.5,5.8-.4-.4,1.8-2.9,4.8-5.6,2-1.8,4.7-5.4,6.1-7.6l5.8-2.1h0Z"/>
          <path id="path4143" class="cls-3" d="M352,385.3c-2.7,2.5-5.9,6-8,8.2-2.3,2.5-4.5,4.1-5,3.7-.5-.5.9-2.5,3.1-4.4,1.5-1.4,3.4-3.3,4.1-4.7l5.8-2.8h0Z"/>
          <path id="path3162" class="cls-3" d="M459.1,377.9l.6,3.2v2.6l3-1.8c1-.6,3.5.1,4-.3,5.8,0,20.5-2.1,23.5-2l4,.2-4.2,2.1c-2.3,1.2-4.2,2.5-4.2,2.9s4.3.8,9.5.8,9.5.4,9.5.8-2,1.5-4.5,2.2-4.5,1.6-4.5,2,2.1,1.2,4.8,1.8c4.4.9,4,1-5.2,1.1h-10l2.5-2,2.5-2-2.5.5c-1.4.3-4.9.9-7.9,1.2l-5.4.7,1.7-2.4c1.8-2.5,2.2-4.4.8-3.5-.4.3-3.1,1.4-5.8,2.5l-5,2,.5-2.5.5-2.5-4.3,2.2c-3.1,1.6-4.5,1.8-5,1s-1.2-.5-2.3,1l-1.5,2.2-.7-2.2c-.6-2-.8-2.1-1.7-.5s-1,1.6-2.3,0c-1.3-1.8-1.4-1.7-1.4,0s0,1.8-2,0-2-1.8-2,.8v2.7l-8.5-4.2c-4.7-2.3-8.3-4.3-8.2-4.5,0-.1,2.7.4,5.7,1.2,7.3,1.9,7.3,2,6.6-1.6-.7-3.3-.2-3.4,4.6-1.4,1.3.6,1.8.2,1.8-1.4,0-2.8,1.6-2.7,3.1.1q1.2,2.2,2,.2c.2-.5.3-1.9.4-2.2,1.9-.2,1.9,1.4,2.6,3q1.1,2.1,3.5-.6l1.8-3.3h-.4Z"/>
          <path id="path3160" class="cls-3" d="M255,337.1l3.5,3.3,3.5,3.4.3-2.9c.3-2.7.4-2.5,2,1.9,1.2,3.4,1.3,4.7.5,4.7-2.1,0-6.7-4.1-8.3-7.3l-1.6-3.1h.1Z"/>
          <path id="path3158" class="cls-3" d="M306.8,340.4c.2,0,.3.3.3.7,0,1.3-2.4,5.1-4.8,7.7-2.6,2.8-5,3.8-3.5,1.5,4-6.4,7-10,8-9.9h0Z"/>
          <path id="path3156" class="cls-3" d="M271.4,340.5h0c.3.3,1,2.2,1.5,4.2,1,3.5.9,4.8-.1,3-.6-1.1-1.8-7-1.5-7.3h.1Z"/>
          <path id="path3154" class="cls-3" d="M267.4,340.6c.1,0,.4.2.8.5.7.6,1,2.4.8,4-.3,2-.5,2.2-.6.7,0-1.2-.5-3-.8-4-.3-.9-.4-1.3-.2-1.2h0Z"/>
          <path id="path3152" class="cls-3" d="M170.1,358.8c.7,0,2.1.7,5.4,2.3,5.3,2.7,5.9,2.8,6.3,1.2.8-2.9,6.7-2,13.6,2.2,3.4,2.1,6.2,4.2,6.2,4.7,0,1.4-3.1,1.1-6-.6-3.2-1.8-4-1.8-4,0s-.6,1.2-1.6.8c-.9-.3-1.9,0-2.4.7-.6,1-2,.8-6.4-.9-6.4-2.4-6.9-2.5-6.1-1.1.9,1.4.2,1.3-7.8-1.1-7.7-2.3-9.3-2-5.7,1l2.4,1.9-4-.9c-5.7-1.3-6-1.2-4.1,1,1.7,1.9,1.6,1.9-8.1,1.3-9-.5-9.7-.5-8.5,1,1.2,1.4.8,1.8-3.3,2.8-3.7.9-4.4,1.4-3.5,2.6.9,1.1.5,1.4-2.2,1.4s-6.4.3-10.1.6c-3.7.4-6.8.4-6.8,0s2.5-1.4,5.5-2.3,5.5-2,5.5-2.4-1-1.2-2.2-1.8c-2-1-1.7-1.1,2.2-1.2h4.4l-5.1-5.5c-2.8-3-5.2-5.9-5.2-6.5s2.9.6,6.5,2.6c8.3,4.6,14.9,6.5,19.2,5.8,4.6-.9,4.1-2.2-.9-3.1-3.8-.6-4-.8-1.8-1.4,1.4-.4,4-.8,5.8-.8,2.7,0,3.2-.4,2.8-1.7-.6-1.4.2-1.6,7.2-.9,4.3.4,8.8,1,10,1.2,1.8.4,2.2,0,2.2-1.6s0-1.4.5-1.5v.2Z"/>
          <path id="path3150" class="cls-3" d="M385.5,373c.2,0,0,.2-.2.6-1.2,1.5-1,1.7,2.7,1.7s4.2.5,4.6,1.6c.5,1.2,1.5,1.5,4.1,1.1,2.1-.3,3.3-.2,2.9.3-.3.5,0,1,.7,1s3.1.8,5.3,1.8l4,1.8-6.6-.4c-4.6-.3-8.3.1-12,1.3-2.9,1-6,2-6.7,2.2-1.1.4-1.1,0-.2-1.7,1.1-2,.9-2.1-2.6-2.2-2.9,0-3.4-.3-2.3-1.1,1.5-1,.6-.9-8,.8-2.5.5-1.5-.1,11-7.4,1.8-1.1,3-1.6,3.3-1.6v.2Z"/>
          <path id="path2212" class="cls-4" d="M476.1,379.4c-1.5,0-3.1,0-4.2.2-2.3.2-.4.4,4.2.4s6.6-.2,4.2-.4c-1.2-.1-2.7-.2-4.2-.2Z"/>
          <path id="path2182" d="M202.3,11.5c-1.6,0-2.6.8-3.8,2.1-2.4,2.5-4,12-2.8,16.5.7,2.5.8,2.6,1.6.8.7-1.8.8-1.8.9.5,0,1.4.5,3.2,1,4,.8,1.3,1,1.3,1.3,0,3-10.7,4.4-10.7,15.3.2,7.5,7.5,8.2,8.5,6.7,9.6-.9.7-2.4,1.2-3.3,1.2s-3.1,1-5.1,2.2c-4.5,2.8-12.4,2.6-27.5-.9-14.8-3.4-26.6-4.2-30-1.9-3.3,2.2-3.2,3.5.2,2.8,2.6-.5,2.6-.4,1,1.2-2.8,2.8-2,3.4,2.5,1.9,5.4-1.8,21-1.2,35.2,1.4,9.6,1.8,9.8,1.9,7.5,3.4s-2.3,1.7-.7,4.2c1.6,2.4,2.3,2.7,8.2,2.7s8.1-.7,10.1-1.5c5.5-2.3,40.5-1.3,52.2,1.5,13.5,3.2,25.4,9.5,35,18.6,3.3,3.1,7.9,8.3,10,10.5h0c1.6,2.5,2.9,5.1,4.5,7.5-.8,0,2.5,5.8,3.2,7.8.4.6.6.9.8.9,1.7,7.3,3.7,14.6,4.6,22.1,0,2.6-.2,2.8-2.8,2.2-19.1-4.9-24.5-5.7-40.2-6.2-13.1-.4-18.2-.2-24.5,1.1-14.1,3.7-17.1,6.1-25.3,10.4-6.3,5.3-8.9,6.3-12.4,13.7-6.1,13.1-4.3,29.5,4.8,39.6l2.3,2.6-6,3.7c-7.2,4.5-14.8,11.6-18.6,17.7-8.6,13.6-8.4,32.2.6,46.4l3.1,4.9-3.3,2.6c-16.1,12.6-26.8,25.6-32,38.9-3.2,8.1-3.2,23.4,0,31.2,1.2,3,2.2,6.2,2.2,7,0,2.9,9.8,14.8,16.6,20.2,19.5,15.5,38.6,22,79.9,27.3,17.2,2.2,47,1.3,60.9-1.8,13-2.9,18.2-4.8,29-10.5,9.3-4.9,24.4-15.9,27.7-20.3,1.3-1.7,4.5-5.7,7.1-9l4.8-6,4,3.6c12,10.9,34.6,24.4,43.4,26.1,1.9.4,3.5,1,3.5,1.4,0,1.4,9.8,3,18.3,3,18.6-1.1,36.8-7.5,48.9-22.2,10.5-11.9,11.9-14.4,12.5-23.5.5-6.9.4-7.3-2-8.4-2-.9-3.3-.7-7.1.9-2.5,1.1-4.6,2.4-4.6,2.9s-3.7,4.7-8.2,9.4c-12.5,12.8-20,15.7-39.2,15.1-9-.3-10.5-.6-15.5-3.4-7.7-4.4-22.5-15.6-31.2-23.7l-7.2-6.8,1.9-5c1.5-3.9,1.9-7.5,1.9-17.4,0-20.6-5.1-37.5-15.9-53.5-5.7-8.4-6.1-9.3-5.3-12.6,1.4-5.7,1.3-22.1-.2-28-3.4-13.9-11.2-26.2-24.9-39.1l-8.9-8.4-.6-9.5c-3.2-49.5-35.2-92.9-78.2-106.3-8.5-2.7-20.6-4.7-28.1-4.7s-5.3-.7-9.2-3.9c-2.6-2.1-5.7-4.2-6.8-4.5-1.2-.4-2.9-1.8-3.8-3.1-1.2-1.8-2.5-2.4-4.8-2.4-4.4,0-15.3-3.2-25.2-7.5-5.4-2.3-8.4-3.4-10.4-3.4h.4ZM202.5,14.4c1,0,1.7.7,2.1,2.4.3,1.4,1.3,2.5,2.1,2.5s1.2-.6.9-1.5c-.9-2.3,1.8-1.8,11.1,2,4.7,1.9,9.4,3.5,10.6,3.5,3.3,0,13.3,5.7,19.5,11.1,5,4.4,6.1,4.9,10.4,4.9s5.6.6,7.5,2.1c2.2,1.7,2.9,1.9,4.2.8,2.1-1.7,4.6-.4,12.2,6.4,6.4,5.7,8.1,6.3,15.6,5.8,1.6,0,3.8.6,4.8,1.5,1.6,1.4,2.1,1.5,2.8.3.7-1.1,1.5-1.1,4.5.4,3.5,1.6,3.6,1.9,2.2,3.9-1.3,1.9-1.2,2.6.4,5.8,1,2,2.3,4,2.9,4.3s1,2.4,1,4.5.5,4.2,1,4.5c2,1.2,1,2.7-1.5,2.2-2.4-.5-2.4-.4-.9,1.3.9,1,3.3,2.2,5.3,2.7,3.2.7,3.7,1.3,4,4.1.2,2.1.9,3.2,1.9,3.2s1.3-.6,1-1.5c-.3-.8-.1-1.8.5-2.1,1.3-.8,6.8,5.5,6.8,7.8s1.7,2.2,2.3-.3c.7-2.8,4.1-2.1,4.5.8.2,1.4,1,2.2,2.2,2.2s2.6,1.1,3.5,2.5,2.3,2.5,3,2.5,1.4.5,1.4,1.2.8,2,1.7,3c1.5,1.7,1.5,1.9,0,2.5-.9.3-2.3,0-3.1-.6-1.2-1-1.5-1-1.5,0s-.8,1-2.4.6c-2.1-.5-2.6,0-3.6,3.2-.7,2.1-1.8,4.5-2.6,5.3-1,1.2-1.1,1.8-.2,2.7,1.4,1.4-.6,4.2-3,4.2s-1.1.5.6,2.3c1.2,1.3,2.2,3,2.2,3.8,0,1.7,4,3.8,7,3.8s2.6,1.4,3.9,3.9c2.9,5.7,4,5.9,4,.9s-1.3-17.7-2.5-25.8c-1.2-8.5,1.7,2,3.5,12.8,2.5,14.9,2.5,18.2,0,18.2s-3.7,1.7-2.6,2.8c.3.3,1.1,0,1.8-.6,1.7-1.7,5.8-1.5,5.8.3s.7,1.5,1.5,1.5c2,0,1.9,1.3-.4,4.1l-1.8,2.3-1.7-3.3c-1.2-2.4-2.1-3.1-3.4-2.6-3.1,1.2-3.6,1-4-1.3-.5-3.3-3.6-2.4-4,1.1-.2,1.5-.9,2.8-1.7,2.8s-1.5,1.2-1.7,2.8c-.2,2-.8,2.6-2.1,2.4-1-.2-1.8.3-1.8,1s-.9,3.1-2,5.3-2,4-2,4.2,1.1.8,2.5,1.3c2.6,1,3.1,2.5,1.6,5-.6.9-.6,1.9.1,2.8.8,1,.6,1.3-.6,1.3s-1.6.7-1.6,1.5.7,1.5,1.5,1.5,1.5.5,1.5,1c0,1.6-3,2.4-4.2,1.1s-2.2-1.1-3.4-1.1-2.3-.6-2.3-1.6-.3-1.4-1.4-.4c-2.2,1.9-7.1.9-7.1-1.4s2.4-3.2,3.3-.6c.5,1.4,1.6,1.3,3.2-.4l2.4-2.5h-2.7c-3.5,0-3.5-1.8,0-2.2,3.2-.4,5.7-4.6,5.5-9.5,0-2.1.7-3.9,2.3-5.4,2.9-2.8,3-4.5.3-5.9-1.1-.6-1.8-1.5-1.4-2,1-1.5,2.5-1.1,2.5.8s.3,1.5,1.2.5,1-1.9,0-4.4c-1-2.7-.9-3.3.4-4.3,1.8-1.3,1.1-4.7-.9-4.2s-1.2-.7-1.1-2.2c.2-3.4-1.5-7.7-3.4-8.5-1.4-.5-1.4-.8.2-2.5,1.4-1.6,1.5-2.2.5-3.9-.7-1.1-1.8-1.8-2.6-1.5-.7.3-1.3,0-1.3-1s-.2-2.2-.6-3c-.4-1.1,0-1.4,1.4-1,1.9.5,2,.3.8-2.6-1-2.7-1.3-2.9-2.3-1.6s-1.3,1.2-2.3-.7c-1.7-5.8-3.6-11-7.2-15.7l-2.2-3.1c.2.2-2.2-3.7-2.2-3.8-2-3.9-2.1-2.8-4.9-6-1.5-2.1-4.2-4.7-6.1-5.7s-3.5-2.2-3.5-2.6c0-1-9-6.4-13.4-8-2.1-.8-4.1-1.9-4.3-2.6-.3-.7-2.4-1.5-4.9-1.9-2.4-.4-4.4-1-4.4-1.5s-2-.9-4.4-.9-4.7-.5-5.1-1.1-1.3-.8-2-.6c-.7.3-1.6.2-1.9,0-.3-.3-2.7-.7-5.3-.8-3.8,0-4.8-.5-5.1-2-.3-1.7-.5-1.7-2.3.6l-1.9,2.4-2.6-2.9c-2.6-2.9-4.8-3-2.4,0,.7.9,1,1.8.7,2.2s-5.1.5-10.5.4c-6.8-.2-11.2.3-14.2,1.3-4.9,1.7-9.5,2-10.3.7-.3-.5,1.6-1.2,4.3-1.5,3.2-.4,5.8-1.5,7.7-3.3l2.8-2.7-2.8.7c-2,.5-2.6.4-2.1-.4,1-1.7,6.9-3.9,10.3-3.9,5.7,0,4.3-2.6-7.4-13.2-6.3-5.7-12.6-10.8-13.9-11.4-1.4-.6-3.8-2.3-5.5-3.9-2.8-2.7-2.9-3-1.4-4.7,1-1.1,1.9-1.7,2.6-1.7h.1ZM197.8,21.5c.3,0,.5.2.8.6.2.4-.2,2.1-.9,3.8l-1.3,3v-3.2c0-2.3.7-4.1,1.5-4.1h-.1ZM201,24.4c.2,0,.4.4.7,1.1.4.9,0,2.7-.9,3.9l-1.6,2.3v-2.5c0-1.4.5-3.2,1-4,.4-.6.7-.9.9-.9h-.1ZM231.2,26.4c-.6,0-1,.7-1,2.2s1.4,3.1,5.2,5.5c2.9,1.8,5.3,3.2,5.4,3.2s-.3-1.6-.9-3.5c-.7-2.3-1.9-3.7-3.4-4.1-1.3-.3-2.8-1.2-3.4-2-.8-.9-1.4-1.3-1.9-1.3h0ZM247,38.3c-.2,0-.3,0-.4.2-.4.4,0,1.4.6,2.2,1.4,1.7,2.9,1.7,3.1,0,0-1.2-2.1-2.7-3.3-2.5h0ZM265.7,41.7c-.2,0-.5,0-.8.4-.6.6-2.1,1.1-3.4,1.1-2.8,0-3,1.6-.4,2.5,1.1.3,2.1,1.6,2.2,2.8.4,2.9,3.8,3.6,3.8.9s-.6-2.2-1.2-2.4c-.7-.2-.9-.8-.5-1.3s2.2.8,3.8,2.9c1.7,2,3.5,3.4,4,3.1,1.2-.7-3-6.4-4.7-6.4s-1.5-1-1.9-2.1c-.3-1-.6-1.4-1-1.4h.1ZM285.1,43.3h1.1c4.5,0,11,2.3,11,3.9s-1.5,2.2-2.6,1.1-3.4-1.3-6.3-1.7c-6.2-.9-7.9-3-3.2-3.2h0ZM274.7,44.7c-.4,0-.7.2-.9.6-.3.5-.2,1.6,0,2.5.9,2.2,3.4,2,3.4-.3s-1.4-2.8-2.5-2.7h0ZM257.9,48.7c-.7,0-1.3.8-1.6,2.6-.2,1.4-.8,3-1.3,3.6-.6.8-.5,1.3.3,1.6,3.1,1,4.7-.4,4.4-4.1-.2-2.4-1.1-3.7-1.9-3.7h.1ZM279.3,50.3c-1.4,0-2.3,1.8-1.5,3,.3.6,1,.8,1.5.4,1.2-.8,1.2-3.4,0-3.4ZM283,51.7c-1.1,0-1,5.7.2,7.6.8,1.2,1.3,1.3,3,.2s2.1-1,2.6.2c.3.8,1,1.5,1.5,1.5s.6-.7.3-1.5c-.4-.9,0-1.5,1-1.5s1.6-.6,1.6-1.4c0-1.4-4.6-1.6-6.7-.3-1.3.8-2.3-.2-2.3-2.4s-.4-2-1-2.4c0,0-.1,0-.2,0ZM263.7,52.3c-.8,0-1.5.4-1.5,1s.9,1,2.1,1,1.8-.4,1.4-1-1.3-1-2-1ZM269.6,52.8c-.4,0-.7.2-.9.6-.3.6,0,1.7.6,2.5,1.3,1.6,3,1.1,3-1s-1.5-2.2-2.6-2h-.1ZM275.9,52.8l-1,2.3c-.8,1.8-.7,2.5.4,3.2,2.2,1.3,3.3-.5,1.9-3.2l-1.2-2.3h0ZM295.7,56.3c-.3,0-.5.3-.5,1s.5,1,1.1,1,.8-.4.4-1-.8-1-1-1ZM302,57.4c-.1,0-.2,0-.3.2-.3.3-.2,1.2.2,2.1.8,2,2.4,2.1,2.4.2s-1.4-2.7-2.2-2.5h-.1ZM308.8,58.3c-.9,0-1.6.8-1.6,1.8s-.5,2.3-1.2,3-.9,1.5,0,2.5c.6.8.9,1.7.5,2.1s-.2.7.4.7c1.6,0,2.2-1.3,2.8-5.9.5-3.3.3-4.1-1-4.1h.1ZM294.2,59.5c-1.1,0-2,.9-1.4,1.8.3.5,1,.9,1.4.9,1.4,0,2.1-1.8,1-2.5-.3-.2-.7-.3-1.1-.3h.1ZM316.4,60.7c.2-.2,4.7,3.6,9.9,8.5,9.6,9,15.6,16.5,18.4,23.3,2,4.8,1.3,4.8-1.6,0-1.3-2.1-7.3-8.9-13.4-15.2-10.2-10.6-14.2-15.6-13.2-16.6h0ZM299.6,63.6c-.1,0-.3,0-.4.2-.5.3-1,.8-1,1s.5.5,1,.5,1-.5,1-1.1-.2-.7-.6-.6ZM298.1,67.3c-.6,0-.8.4-.4,1,.8,1.3,1.5,1.3,1.5,0s-.5-1-1.1-1ZM308.7,70.3c-.3,0-.5.5-.5,1.5s.5,1.3,1,.9c.6-.3.8-1.1.4-1.6-.3-.5-.6-.8-.8-.9h-.1ZM310.4,75.3c-.4,0-.9.5-1.1,1.1s.1,1,.8.8,1.1-.7,1.1-1.1c0-.6-.4-.8-.8-.8ZM320.7,88.3c-1.5,0-2,1.2-.8,2.3.8.8,2.3,0,2.3-1.3s-.7-.9-1.5-.9h0ZM325.3,95.3c-.5,0-1.2.3-1.6,1-.3.6,0,1,.9,1s1.6-.4,1.6-1-.4-1-.9-1ZM329.2,95.5h-.3c-.4,0-.7.5-.7,1.2s.7,1.6,1.6,1.6,1.4-.5,1.2-1.2c-.3-1-1.1-1.6-1.8-1.6h0ZM340.2,100.4c-.8,0-1.1,1-.6,2.5.5,1.3,1,1.4,1.8.5.9-.9.9-1.4,0-2.3-.5-.5-.9-.7-1.2-.7h0ZM333.5,102.5c-.2,0-.2.3-.2.9,0,.9.3,1.9.7,2.2,1.2,1.2,1.5,0,.4-2-.4-.7-.7-1.1-.8-1.2h-.1ZM329.7,102.6c-.1,0-.3,0-.4,0-.6.4-.5,1.6.2,3.2,1,2.1,1.3,2.3,1.6.9.4-2.1-.4-4.3-1.3-4.3h-.1ZM344.1,104.3c-.5,0-.4.9.2,2.1.6,1.1,1.3,1.9,1.6,1.7.7-.7-.7-3.7-1.8-3.7h0ZM341.2,105.3c-1.2,0-2,1.6-1.3,2.3,1.3,1.3,3.3.6,2.7-.8-.3-.8-.9-1.5-1.4-1.5h0ZM339,108.8c-.8,0-.7,1.5.4,4.1l1.2,2.9.4-2.9c.2-1.7-.2-3.2-.9-3.7-.5-.3-.8-.4-1.1-.4ZM336.8,112.7c-.2,0-.5,0-.7.3-.7.7-.7,1.7.2,3.4,1.1,2.1,1.4,2.1,1.7.6.5-2.2-.2-4.3-1.2-4.3ZM299.1,132.3c5.5,0,30.1,9.8,30.1,12s-.7.9-1.8.4c-4.3-1.8-14.2-5.4-19-6.8l-5.3-1.6,2.6,3.3c1.4,1.8,3.2,3.6,3.9,3.9,1.5.6,9.5,12.2,9.5,13.7s-1.5,1-8,0c-2.5-.4-12-1.3-21.1-2-12.3-.9-16.6-1.6-16.5-2.6.2-2.3-1.9-1.9-2.2.4-.2,1.6-1,2.2-2.8,2.2s-2.3-.2-1.3-2.1c1.8-3.4.2-3.4-2.9,0-2.8,3-5.5,3.9-7.7,2.4-1.4-1-3.5-8.2-3.5-12s-.3-3.1-3.2-3.4c-2.2-.2-3.4-.9-3.6-2.1-.3-1.4.1-1.7,2.1-1.2,1.9.5,2.6.2,3-1.5.4-1.6,1.3-2.1,4.1-2.1,4,0,4.4.6,1.8,2.6-1.6,1.3-1.5,1.6,2,4.6,2.1,1.8,3.8,3.9,3.8,4.8,0,2.3,1.1,3.1,2.7,1.8,1-.8,1.9-.7,3.6.3,2.6,1.7,14.1,5.8,16.2,5.8s2.3-1.7,3.4-3.8,4.2-5.9,6.9-8.5c4.3-4.1,4.8-4.8,3.1-5.3-2.5-.8-2.5-3.5,0-3.5v.3ZM287.1,134.4c3.4,0,5.1.2,5.1.7s-2.4,1.3-5.2,1.6c-12.4,1.3-24.8,1.6-24.8.7,0-1.5,2.6-1.9,16.8-2.7,3.4-.2,6.1-.3,8.2-.3h-.1ZM302.7,139.3c-.3,0-.5.3-.5,1s.5,1,1.1,1,.8-.4.4-1-.8-1-1-1ZM256.7,140.3c-.8,0-1.5.7-1.5,1.5s.7,1.5,1.5,1.5,1.5-.7,1.5-1.5-.7-1.5-1.5-1.5ZM344.3,140.5c-.4,0-.9.2-1.3.6-.9.9-.8,1.5.2,2.8,1.2,1.5,1.4,1.5,2.2,0,.9-1.7,0-3.3-1.2-3.3h0ZM349.2,142.3c-.5,0-1,.9-1,2s.5,1.8,1,1.5c1.3-.8,1.3-3.5,0-3.5ZM297.4,142.4c-.4,0-.7,0-1,.3-.4.4,0,1.1.8,1.6,1.9,1.2,3,1.2,3,0s-1.6-1.9-2.8-1.9h0ZM249.6,142.5h.2c.3.3-1,2.2-2.9,4.1-1.9,1.9-4.3,4.9-5.3,6.6-2.7,4.5-3.9,3.7-1.3-.9,2.4-4.2,7.8-9.9,9.3-9.9h0ZM259.3,145.3c-1.3,0-2.2,1.5-1.4,2.3,1.1,1.1,2.3.7,2.3-.8s-.4-1.5-.9-1.5ZM343.3,146.3c-1.4,0-2.3,1.8-1.5,3,.3.6,1,.8,1.5.4,1.2-.8,1.2-3.4,0-3.4ZM294.9,146.3c-.6,0-.3.7.8,1.5,2.2,1.7,3.6,1.9,3.6.6s-2.4-2.1-4.3-2.1h-.1ZM311.2,148.3c-.5,0-1,.3-1,1s.7,1,1.6,1,1.3-.4.9-1-1-1-1.5-1ZM303.3,148.8h-.2c-1.5.9-1,2.2.8,2.7,2.4.5,2.8,0,1.3-1.7-.6-.7-1.4-1.2-1.9-1.1h0ZM230.4,150c.7,0,1.2,1.2,2.3,4.7,2.4,8.1,6.5,9.5,17.1,5.5,4-1.5,5.9-1.8,6.7-1s.3,1.4-1.6,2.1c-2.3.9-2.7,1.6-2.7,5s-1.3,5.8-4.5,3.7c-2.9-1.9-12-2.1-13.1-.3-1,1.5-2.6,11.4-2.5,15,0,1.5-.1,2.8-.3,2.8s-1.9-2.6-3.7-5.8c-2.9-5.1-3.3-6.5-3.1-12.2.3-8.2,2.1-15.3,3.8-14.6,2,.8,2.6-.6.8-1.8-1.4-1-1.4-1.3,0-2.4.3-.3.6-.4.8-.4v-.3ZM293.2,150.3c-.5,0-1,.4-1,1s.5,1,1,1,1-.4,1-1-.4-1-1-1ZM260.2,151.3c-.5,0-1,.7-1,1.5s.5,1.3,1,1c1.3-.8,1.3-2.5,0-2.5ZM299.2,151.4h-.3c-.1,0-.2,0-.3.2-.3.3-.2,1,.1,1.6.8,1.3,2.5,1.4,2.5.1s-1.1-1.9-2-1.9h0ZM309.5,152.7c-.3,0-.5.2-.7.4-.3.5-.3,1.1,0,1.5,1,1,2.3.8,2.3-.3s-1-1.7-1.8-1.6h.2ZM356.5,153.2c.4,0,.7.4.7,1.3,0,2.8-4.2,16.2-6.5,20.8-1.4,2.7-3.3,5.3-4.4,5.9-4.1,2.2-4,1.3.4-4.5,3.1-4,6-11.6,7.9-20.7.4-1.7,1.3-2.8,1.9-2.8ZM364.3,158.3c2.2,0,1.9,3.5-1.3,13.2-1.9,5.6-3.9,10.4-4.5,10.6-2.2.7-2.4-2-.4-7,1.1-2.9,2.8-7.8,3.7-10.9s2-5.8,2.6-5.8h-.1ZM278.5,159c13.3,0,29.9,2.3,42,6.6,4.9,1.7,6.2,2.7,6.5,4.5.5,3.5-6.3,9.5-14,12.2-8.1,2.8-26.4,3.7-35.4,1.6-18.1-4.1-28.6-16.9-17.9-22,4-1.9,10.8-2.8,18.8-2.9h0ZM230.7,159.3c-.8,0-1.5.9-1.5,2s.7,2,1.5,2,1.5-.9,1.5-2-.7-2-1.5-2ZM249.3,163.3c-1.7.3-2.5,2.5-1.7,4.7.5,1.4.9,1.2,2.1-1.1,1.8-3.5,1.8-3.6,0-3.6s-.2,0-.3,0h-.1ZM234.9,164.3c-1.2,0-2.7,1.3-2.7,2.5s.4,1.5.9,1.5c1.3,0,3.5-2.9,2.8-3.7s-.6-.4-1-.3h0ZM241.2,164.3c-.5,0-1,.4-1,1s.5,1,1,1,1-.4,1-1-.4-1-1-1ZM228.6,165.7c-.1,0-.3,0-.4.1-.5.3-1,1-1,1.5s.5,1,1,1,1-.7,1-1.6-.2-1-.6-1.1h0ZM227.7,170.3c-1.8,0-1.9,1.4-.5,4.1,1.4,2.7,2,2.4,2-1.1s-.5-3-1.5-3ZM239.7,173.3h.2c.4,0,5.1,4.5,10.4,10s9.6,10,9.4,10-2.9-2-6.1-4.3c-7.9-5.8-16.1-15.1-13.9-15.7ZM334.8,175.6c-.8,0-1.4,1-.9,2.2.3.8,1,1.5,1.5,1.5,1,0,1.2-2.4.2-3.3-.3-.3-.6-.4-.8-.4h0ZM382.9,178.3c.4,0,9.5,14.4,10.1,15.9.3.9,1.1,2.3,1.9,3.2s1.7,4,2,7l.6,5.4-3.4-3.9c-6.1-6.9-12.3-8-13.1-2.2-.2,1.2-1.5,2.7-3.1,3.5s-3.4,2.9-4.2,4.8c-.8,1.9-1.6,3.4-1.9,3.4s-.9-2.5-1.5-5.4c-1.3-6.6-7.3-18.9-10.7-21.8-3.9-3.4-3-5.1,1.2-2.2,2,1.4,4.5,2.5,5.5,2.5s1.8.7,1.8,2.5c0,3,1.3,3.2,3.1.4,1.4-2.1,1.4-2,5.7,1.1,2.4,1.7,4.6,2.8,5,2.5.4-.4.7-4.2.7-8.6s0-7.9.2-7.9v-.2ZM335.2,181.3c-.5,0-1,.4-1,1s.5.8,1,.5c1.3-.8,1.3-1.5,0-1.5ZM351.6,182.7c.9,0,1.6.2,2.1.7,2.1,1.8,1.8,3.3-1.7,6.5-1.7,1.6-3.7,4.2-4.5,5.7s-2.3,2.8-3.4,2.8-2.2.5-2.5,1c-.5.9-2.6,1.5-2.4.8,0-.1.9-3.6,1.8-7.8l1.8-7.5,4.7-1.3c1.8-.5,3.1-.8,4-.8h.1ZM262.8,183.6c2.7-.2,17.5,4.9,17.2,6-.2.6-1.7,1.4-3.3,1.8-4.3,1-10,3.6-11.9,5.5s-1.4,1.8-.3,2.8c.7.6,4,3.9,7.2,7.4,4.9,5.2,5.6,6.5,4.6,7.8-1.1,1.3-.7,1.5,2.6,1.7,2.7,0,3.1.3,1.4.6-3.3.6-4.7,2-3.3,3.4s1.9.7,4.1-.6c1.9-1.1,3.9-1.5,5.6-1.1,2.7.7,3.7,2.6,1.3,2.6s-1.8.5-2.4,1.1-4.8,1.3-9.3,1.6c-7.1.4-8.4.3-9.6-1.3-1.3-1.7-1.5-1.7-3.3.6-1.4,1.8-2.5,2.3-4.4,1.8-1.7-.4-3.3,0-5.1,1.3-3.4,2.6-4.3,2.5-3.8-.5.1-.5-.6-1.5-1.6-2.2s-1.5-1.4-1.3-1.5,1.3-.8,2.3-1.3c2.5-1.4,3.2-3.4,1.2-3.4s-2.1-1.9,0-2.7c1.1-.4,1.2-1,.5-2.4-1.3-2.5-1.2-3.2.2-2.3.7.4,1.9.8,2.8.9,5.6.5,8.9,1.6,8.3,3-.3.8,0,1.5.6,1.5s1.1-.5,1.1-1,.7-1,1.5-1c1.8,0,3.7,4.3,2.8,6.5-.4,1.1,0,1.5,1.5,1.5,2.3,0,2.7-1,1-2.7s-.5-1.4,1.1-2.3c2.2-1.2,2.1-1.2-1.1-3.6-1.8-1.3-4.2-2.7-5.3-3-6.8-2-20.2-8.9-23.8-12.1-1.9-1.7-2.3-4.2-.8-4.2,2.4,0,3.8,1.3,3.3,3.1-.3,1.3,0,1.9,1.1,1.9s1.6-.7,1.6-1.5.7-1.4,2.8-.9c1.5.4,3.3,1,3.8,1.5.6.5,2.6.4,4.5-.2,5.2-1.7,6.5-2.5,6-4-2-6.7-2.4-8.9-1.9-9.4s.2-.1.3-.1l.2-.6ZM351.3,184.5c-.2,0-.4,0-.7.2-.9.3-1.8.6-2,.6s-.4.7-.4,1.5c0,1.7.2,1.7,2.4.9.9-.3,1.6-1.3,1.6-2.1s-.3-1.1-.9-1.1h0ZM313.4,186.7c1.2,0,1.3.5.1,1.7s-.9,1.7-.6,2.5-.3,3.9-1.2,6.9c-1.7,5.4-1.7,5.6.2,7,1,.8,2.6,1.5,3.6,1.5s2.4.7,3.3,1.6c1.6,1.6,5,1.6,8.8,0,1.2-.5,1.8-.3,1.8.8,0,2.1-1,2.6-7.2,3.7-2.9.5-8.9,1.6-13.3,2.4-10.5,2-13.4,1.9-14.2-.2-.7-1.8,0-2.5,7.9-7.4,2.9-1.8,4.8-3.6,4.8-4.8,0-2.5-4.7-6.7-9.3-8.3-3.6-1.3-6.4-3.5-5.6-4.3s2.2,0,4.4.7c3.6,1,4.7.8,10.2-1.7,2.9-1.3,5.2-2,6.3-2.1h0ZM268.3,187.3c-1.3,0-2.2,1.5-1.4,2.3s2.3.7,2.3-.8-.4-1.5-.9-1.5ZM345,187.4c-.2,0-.5.2-.9.7-.9.9-.8,1.5.2,2.7,1.4,1.7,3.2,1.6,3.8-.3.2-.7-.3-1.2-1.2-1.2s-1.6-.6-1.6-1.2,0-.7-.2-.7h0ZM273.2,188.3c-.5,0-1,.7-1,1.5s.5,1.3,1,1c1.3-.8,1.3-2.5,0-2.5ZM336.7,189.7h.2c1.1,1.1-2.3,3.8-10,7.6-6.8,3.4-12.8,5.1-12.8,3.6s2.2-1.2,4.9-2.1,7.7-3.4,11.1-5.6,5.7-3.4,6.5-3.5h0ZM387.2,190.3c-.5,0-1,.5-1,1s.5,1,1,1,1-.5,1-1-.4-1-1-1ZM356.7,190.6c1.3.4,6.1,9.4,6.9,12.9.4,1.5.3,2.7-.1,2.7-1.5-.2-14.7-6.8-13.7-6.9.6,0,2.2-2.1,3.5-4.5,1.3-2.5,2.8-4.4,3.4-4.2h0ZM304.2,192.3c-.5,0-1,.5-1,1s.5,1,1,1,1-.5,1-1-.4-1-1-1ZM311.2,192.3c-.5,0-1,.5-1,1s.5,1,1,1,1-.5,1-1-.4-1-1-1ZM343.7,194.3c-.8,0-1.5.5-1.5,1s.7,1,1.5,1,1.5-.5,1.5-1-.7-1-1.5-1ZM308.4,195.3c-.4,0-.9.5-1.1,1.1s.1,1,.8.8,1.1-.7,1.1-1.1c0-.6-.4-.8-.8-.8ZM391.2,195.3c-1.2,0-2,2.8-1.3,4.5.7,1.9,3.3,1.9,3.3,0s-1.1-4.6-2-4.6h0ZM373.1,195.5c-.3,0-.7.1-1.2.3-.9.3-1.7,1.3-1.7,2,0,1.9,2.7,1.7,3.4-.2.6-1.6.4-2.2-.5-2.1ZM387.6,195.7c0,0-.3,0-.4.1-.5.3-1,1-1,1.5s.5,1,1,1,1-.7,1-1.6-.2-1-.6-1.1h0ZM379.7,197.3c-.3,0-.5.5-.5,1.5s.5,1.3,1,.9c.6-.3.8-1.1.4-1.6-.3-.5-.6-.8-.8-.9h-.1ZM236.9,197.9c.7,0,1.6.6,3,1.7,2.2,1.9,2.6,2.8,1.8,3.7-.8.8-1.3.8-1.8,0-.4-.6-1.8-.8-3.2-.4-2.3.6-2.5.4-1.8-1.8s1.2-3.2,2.2-3.2h-.2ZM376.3,198.3c-.2,0-.4,0-.7.3s-.2,1.2.2,1.9c.6,1,.8,1,1.2,0,.4-1.1,0-2.1-.7-2.2ZM271,199c.4,0,1.5.3,3.3,1,2.4.8,9.7,1.8,16.1,2.1,6.5.3,11.8.9,11.8,1.4,0,1.4-17,.8-23.5-.8-3.3-.8-6.6-2.1-7.4-2.8s-.7-.9-.3-.8h0ZM258.8,200.3c-1.9,0-2.9,1.7-2.2,3.5.9,2.5,3.6,1.7,3.6-1s-.6-2.5-1.4-2.5ZM230.2,201.3c.5,0,1,.4,1,.9s-.4,1.2-1,1.6c-.5.3-1-.1-1-1s.5-1.5,1-1.5ZM372.2,202.5c-.6,0-1,.8-1,2.3s.5,2.5,1.2,2.2c1.6-.5,1.6-4,0-4.5s-.2,0-.3,0h0ZM378.6,202.5c-.2,0-.3.6-.3,1.4,0,1.2.3,1.4.6.6.3-.7.3-1.6,0-1.9h-.3ZM264.8,202.7c-1-.1-1.8,1.5-1.1,2.6.3.5,1,1,1.6,1,1.2,0,1.2-2.7,0-3.5-.1,0-.3-.1-.4-.2h-.1ZM244.6,204.9h.9c1.1.7.7.9-8.7,6.8-5,3.1-7.3,5.4-10.3,10.2-3.6,5.8-6.3,8-6.3,4.9s5.8-10.2,10.2-14.2c3.9-3.5,11.4-7.6,14.3-7.9v.2ZM387.1,206.4c.5,0,1.2,6.1,1.8,17.4.6,13.5.6,14.1-1.6,16.5l-2.2,2.5.6-5.5c.3-3,.6-11.8.7-19.5,0-7.7.4-11.4.8-11.4h0ZM336.9,207.4c.6,0,1.6,0,2.9.3,10.5,1.9,26.4,9.2,26.4,12.1s-.6,1.8-6-1.3c-2.5-1.4-8.7-4.1-14-5.9-8-2.8-12-5.1-9.3-5.2h0ZM311.1,207.4c-.8,0-1.5.3-1.9,1s-.6,1.7-.3,2.1c.3.4,1.6.8,3,.8s2.4-.5,2.2-1.8c-.3-1.3-1.6-2.1-2.9-2.1h-.1ZM306.2,207.9l-2.3,2.2c-1.3,1.2-3.2,2.2-4.2,2.2-1.6,0-1.7.2-.4,1,.8.5,2.4.8,3.5.5s2.3-.5,2.8-.5.8-1.2.8-2.7v-2.7h-.2ZM317.6,208.6c-.1,0-.3,0-.4.2-.5.3-1,.8-1,1s.5.5,1,.5,1-.5,1-1.1-.2-.7-.6-.6h0ZM333.5,210.3c.7,0,1.8.9,2.6,2.7,1,2.2.9,2.9-.5,4.5-1.4,1.5-1.5,1.9-.2,1.9s2.9,1.6,4.6,3.5c2.6,3,3,3.9,2.2,6.2-.5,1.5-1,3.5-1.2,4.4-.3,1.5-1.1,1.3-6.5-1.6-3.4-1.8-8.1-3.6-10.4-3.9-3.2-.4-5.1-1.6-8.1-4.7-3.8-3.9-5.8-5-5.8-3.2s.7,1.4,1.5,2.1c2.2,1.8,1.8,3-1,3s-4.1-2.3-2.6-5.7c1.1-2.5,1.4-2.6,8.1-1.9,4.8.4,7,.3,7.2-.5.3-.8,1-.8,2.7,0,2.8,1.5,3.6.8,2.2-1.9-.9-1.7-.8-2.1.3-2.1s1.8.5,2.1,1c1.3,2,2.7,1,2.1-1.5-.4-1.7,0-2.6.7-2.5v.2ZM217,210.4c.7,0,1.4.4,2.2.9,1.3.9,1.2,1.2-.5,2.7-1.1,1-2,3.1-2.1,4.8s-.4,5.6-.8,8.8-.3,5.8.1,5.8c1.3,0,20.7-4.1,23.9-5.1,4.3-1.3,6.4-1.2,6.4.4s-2.1,3.7-4.2,3.7-1.7.7-1.2,6.4c.5,5.6.3,6.9-1.8,10.2-2.2,3.5-2.2,3.7-.4,3,3.2-1.2,3.9-1.2,3.9.4s-.7,1.6-1.7,1.8c-2.1.4-12.5-4.8-16.6-8.2l-3-2.6-3.6,5.1c-2,2.8-4,4.8-4.6,4.5s-1.2-2.2-1.6-4.1c-.5-2.6-1.2-3.4-2.6-3.4s-1.9,0,.1,2.6c1.1,1.4,2.1,3.9,2.1,5.5s.5,2.9,1.5,2.9c1.6,0,1.9,1.7.9,4.4-1.2,3-4.4,1.7-4.4-1.8s-1-4.1-2.1-6.6c-2.8-6.2-3.2-23-.5-25.9,1.1-1.2,1.5-2.7,1.2-3.9-.4-1.4.6-3.5,3.4-7.1s4.3-5,5.8-5l.2-.2ZM256.2,212.3c-.5,0-1,.4-1,1s.5.8,1,.5c1.3-.8,1.3-1.5,0-1.5ZM255.6,216.3c-1.4,0-2.3.4-2,.9s1.5.7,2.6.4c2.8-.7,2.5-1.3-.6-1.3h0ZM264.5,216.3c-1.1,0-2.6.7-3.2,1.5-1,1.2-.9,1.5.8,1.5s2.6-.7,3.2-1.5c1-1.2.9-1.5-.8-1.5ZM210.6,219.6c-.1,0-.3,0-.4.2-.5.3-1,.8-1,1s.5.5,1,.5,1-.5,1-1.1-.2-.7-.6-.6h0ZM328.8,219.9c-.4,0-.7,0-.9.3-.5.5-.7,1.6-.3,2.5.7,1.8,3.2,2.1,4.2.4.8-1.2-1.5-3.2-3-3.2h0ZM255.5,221.4c-.5,0-1.3.3-2.2.9-1.2.8-1.1,1,.8,1s2.2-.4,2.2-1-.2-.9-.8-.9ZM370.8,222.9c.5,0,1.2.5,2.5,1.4,3.5,2.5,9.9,13.6,9.9,17.3s1.1,3.4,3,1.2c.7-.8,2.5-1.5,4.1-1.5,2.5,0,2.9-.4,2.9-2.9s.9-4.1,2.1-5.5c1.2-1.5,1.8-3.4,1.5-4.4s0-2.7.8-3.7c1.3-1.8,1.4-1.8,2.1.3.4,1.3,0,4.4-1,7.4-2,6.2-7.6,18.1-8.7,18.5-.4.2-.8,1-.8,1.8s-1.2,3-2.6,4.9c-1.4,1.9-3,3.4-3.6,3.4s-.9-2.1-.8-4.8c.3-9.4.3-9.6-2.2-7.8-1.3.9-4.3,1.6-7.5,1.6s-6.1.6-8.1,2.1c-1.9,1.4-3.5,1.9-5.3,1.4l-2.6-.7,2.4-3.6c1.3-2,2.4-4.1,2.4-4.8s1.8-3.9,4-7.1c2.6-3.8,4-7,4-9.1s.3-3.9.6-4.8c.3-.7.5-1,1-.9v.3ZM335.8,223.3c-.9,0-1.6.7-1.6,1.6s.5,1.4,1.2,1.2c1.9-.6,2.2-2.8.4-2.8ZM364.1,223.3c.3,0,.6.2,1.1.7,1,1,1,1.8.1,3.8-.6,1.4-1.2,3.5-1.2,4.5s-.4,2-.9,2-1.1,1-1.2,2.2c-.2,1.4-1.1,2.3-2.5,2.5-1.6.2-2,.8-1.7,2.2.6,2.2-1.2,2.7-2,.6-.3-.8-2.2-1.7-4.2-2.1-2.5-.5-4-1.4-4.8-3.2-1-2.2-.8-2.8,2.3-5.4,1.9-1.6,4.5-2.9,5.7-3,2.9,0,7.8-2.6,8.5-4.3.2-.5.4-.7.7-.8v.3ZM320.7,223.3c-.3,0-.5.3-.5,1s.5,1,1.1,1,.8-.5.4-1c-.4-.6-.8-1-1-1ZM329,225.3c-.5,0-.5.5.2,1.5.7.8,2,1.5,2.9,1.5,1.4,0,1.3-.3-.3-1.5-1.3-1-2.3-1.4-2.8-1.4h0ZM285.7,226.9c17.5,0,27.6,1.3,41.5,5.4,12.2,3.6,28,12.3,28,15.5s-6.3,6.8-14.5,12.6c-2.8,1.9-5.4,3.8-6,4.1-.5.3-2.9-.3-5.3-1.4-11.1-5-42.6-8.4-66.4-7.3l-14.8.7-1.9-4.4c-1-2.4-2.2-6.3-2.6-8.7-.6-3.7-.4-4.7,1.7-6.8,6.5-7,17.9-9.7,40.3-9.7h0ZM361.2,228.5c-1.1,0-2,1-2,2.3s1.4,1.9,2.9,0c.8-1,.8-1.6.1-2-.3-.2-.7-.3-1.1-.3h.1ZM210.2,229.3c-.5,0-1,.4-1,1s.5.8,1,.5c1.3-.8,1.3-1.5,0-1.5ZM337.2,229.3c-.5,0-1,.5-1,1s.5,1,1,1,1-.5,1-1-.4-1-1-1ZM355.9,232.4h-.9c-4.5.3-4.8.6-3.5,3.4,1.3,2.9,3.2,3.3,2.5.5-.5-2.1.7-2.8,1.8-1,1,1.7,2.5,1.1,2.5-1s-.5-1.9-2.3-1.8h-.1ZM226.4,232.5h-.6c-2.3.9-1.4,3,1.6,3.7,1.3.3,2.6.2,2.8-.3.5-1.4-1.9-3.5-3.7-3.5h-.1ZM207,233.4c-.6,0-.8.5-.8,1.4s.5,1.5,1.1,1.5.9,1,.5,2.5c-.5,1.9-.2,2.5,1,2.5s1.3-.5.9-1.1,0-1.7.7-2.6c1.1-1.3,1-1.8-.6-3-1.2-.9-2.1-1.3-2.7-1.3h-.1ZM236.3,235.4h-.3c-.6.1-1.2.7-1.8,1.8-1.4,2.7-1.3,2.9,1.2,3.3,3.1.5,4.1-.6,2.8-3.1-.7-1.3-1.3-2-2-2h0ZM215.8,235.5c-.4,0-.6.6-.6,1.6s.8,2.2,1.8,2.5c2.9.7,3,.7,5.9-.5l2.8-1.2-3.5-.7c-1.9-.4-4.3-1.1-5.2-1.5-.5-.2-.9-.3-1.1-.2h0ZM213.2,237.3c-.5,0-1,.5-1,1s.5,1,1,1,1-.5,1-1-.4-1-1-1ZM375.8,238.3c-.4.1-.3.7.4,1.5s1.5,1.3,1.7,1.1c.7-.7-.7-2.6-1.9-2.6s0,0-.2,0ZM228.3,239.3c-2.1,0-4.1,1.3-4.1,2.6s1,1.4,2.5,1.4,2.5-.5,2.5-2-.4-2-.9-2ZM373.2,242.3c-.5,0-.9,1.2-.9,2.8,0,2.4,0,2.5.9.8,1.2-2.7,1.2-3.5,0-3.5h0ZM367.6,242.3c-2,0-4.4,1.4-4.4,3.3s.5.5,1.2-.2,1.5-.9,2.5,0c1.6,1.3,3.9-.3,2.8-2.1-.4-.7-1.3-1-2.2-1h0ZM233.5,242.5c-.6,0-1.2,1-1.2,3.2s.4,3.6,1.6,3.6,1.5-.8,1.2-3.2c-.2-2.3-.9-3.5-1.6-3.6ZM215.6,243.7c-.1,0-.3,0-.4.1-.5.3-1,1-1,1.5s.5,1,1,1,1-.7,1-1.6-.2-1-.6-1.1h0ZM378.2,244.3c-.5,0-1,.4-1,1s.5.8,1,.5c1.3-.8,1.3-1.5,0-1.5ZM228.3,244.8h-.2c-.5.3-.6,1-.3,1.5.9,1.5,2.4,1.1,1.8-.6-.3-.7-.8-1.1-1.3-1h0ZM222.4,249.4h0c.3.1,1.1,1.9,2.9,5.9,4.3,9.6,7.6,13.9,13.8,18.1,2.7,1.8,4.9,3.9,4.9,4.6,0,3.3-6.9-.5-12.4-6.9-4.6-5.3-8.6-13.6-9.2-19.2-.2-1.5-.2-2.4,0-2.5h0ZM393.5,251.5c1-.3,4.8,5.3,5.8,8.8.6,2.2.9,5.2.8,6.7-.3,2.3-.5,2.1-1.7-1.8-.7-2.5-2.2-6.2-3.2-8.2s-1.9-4.3-1.9-5,0-.5.2-.5h0ZM377.8,252.6h.2c1,1-5.3,10.9-10,15.7s-6.7,5.9-6.7,4.3,2.6-3.6,5.8-7.2c3.2-3.6,6.8-8.1,8.1-9.9,1.1-1.6,2.2-2.8,2.7-2.8h0ZM407.7,254.9h.2c.6.2,1.9,2.5,4.1,6.9,2.2,4.3,2.8,6.9,2.5,9.2-.4,2.7-.2,3.2,1.5,3.2s2.1.9,2.6,5.2c1,8.5.8,17.9-.4,17.2-.7-.4-.8.5-.4,2.9.8,4.2-.3,4.6-2.8,1.2-2.3-3.1-2.2-3.2.9-5.9,1.8-1.6,2.3-2.5,1.5-3-.7-.4-1.2,0-1.2.8s-.6,1.3-1.5.9c-.9-.3-1.5,0-1.5.8s-.9-.5-1.9-2.8-2.8-4.6-3.8-5.2c-2.9-1.5-6.2-7.5-5.1-9.2.5-.8.9-2.3.9-3.5s1.2-3.2,2.6-4.5c2.4-2.3,2.5-2.8,1.9-8.9-.3-3.3-.4-5.1,0-5.4h0ZM356.5,255.3c1,0,1.7.4,1.7,1.4s-1,2.1-2.2,2.9c-1.9,1.3-2,1.6-.5,1.6s2.3,1.4.2,3.1c-1.8,1.5-1.9,3-.2,3,3.3,0,.9,11.6-2.6,12.9-1.2.5-8,.4-15.1,0l-12.8-.9-3.6,3.9c-2,2.1-3.6,4.5-3.6,5.2s-1.1,1.5-2.5,1.7-3.9,1.9-5.6,3.7l-3.1,3.4,2.3,1.5c1.3.8,3.3,1.5,4.6,1.5s2.9.9,3.6,2c1.1,1.8,1.9,2,5.6,1.4,4.3-.7,7.4.9,3.8,1.9-2.7.8-34.6.1-36-.8-.7-.4-1.2-.3-1.2.3s-2.1,1-4.8,1-4.4-.3-3-1.1c3.6-2.1,9.7-3.8,10.3-2.9.9,1.5,2.5,1.1,3.2-.8.4-1,1.6-2.5,2.7-3.4,2.2-1.8,2.4-1.6-5.2-4.3-.7-.2-1.7-1.5-2.3-2.8-.6-1.3-3.1-4-5.6-6.1-3.8-3.2-5-3.7-7.7-3.2l-3.1.6,2.9-2.7c2.5-2.3,3.1-2.5,4-1.2.8,1.1,1.5,1.2,2.8.4,1.4-.8,2-.8,2.7.3.6,1,1.9,1.2,4.2.8q3.3-.6,3.3,3.1c0,3.7.4,3.8,1.5,3.8s1.5-1.1,1.4-4.1v-4.1l8.6-.6c10.1-.7,11-1,12.8-3.8,1.2-1.9,1.1-2-.5-1.4-1.8.7-1.8.6,0-1.1,1.4-1.4,2-1.5,2.9-.6s1,1.5,0,2.4c-.7.7-1.2,1.9-1.2,2.8s-1.1,2.2-2.5,2.8c-2.1,1-3.5,3.2-2.1,3.2,2.3,0,5.6-2.3,5.6-3.9s2-3.3,4.3-3.6c.5,0,1.4-.9,2.2-2,.8-1.1,2.1-1.7,3.2-1.4,2.2.6,4.4-.9,6.1-4,.7-1.2,2.1-2.2,3.1-2.2,2.2,0,8.7,2.8,11.2,4.8,1,.8,1.9,1,2.3.4.3-.5.2-1.3-.4-1.6s-1-1.5-1-2.6-.7-1.9-2-1.9c-2.5,0-2.6-2.7,0-3.5,1.1-.3,2.6-1.7,3.5-3.1,1-1.5,2.6-2.4,3.9-2.4v.3ZM245.4,258.6c1.1,0,2.1.7,3.4,2.1s2.3,3.2,2.2,3.8.8,1.3,2,1.5,2.2,1,2.2,1.8,1.4,2,3,2.6,3.5,1.9,4.1,3,1.8,1.8,2.7,1.7c2.1-.3,7.2,3,7.2,4.7s-2.1,2.7-4.4.6c-2.6-2.5-5.2-2.7-6-.6-.9,2.4-7.4,2-8.2-.5-.3-1.1-1-2-1.6-2-1.2,0-1.2,1.7,0,2.5,1.4.8.2,2.5-1.3,2-.7-.2-1.8-.1-2.4.3-1.5,1,0,7.4,2.2,9.2.8.7,1.5,1.8,1.5,2.5s1.1,2.4,2.5,3.9c2.8,3,1.6,3.2-3.5.6-1.9-1-5.3-2.6-7.4-3.6-4-1.8-6.5-5-2.9-3.6,1,.4,2.1,1.1,2.5,1.7s1,.7,1.5.3.3-1.1-.2-1.5c-1.5-1-1.2-6.2.4-6.2s1.1-2.2-.7-2.8c-.7-.2-1.2.2-1.2,1,0,2.2-3.5,4.9-5.3,4.2-.9-.4-1.7-.1-1.7.5s-.7,1.1-1.5,1.1-1.5-.7-1.5-1.5-1.4-2.2-3.1-3.1c-2.1-1.1-2.8-1.9-2.1-2.6,1.2-1.2,5.3-.1,5,1.4-.1.6.3,1.2,1,1.5s1.2-.3,1.2-1.2c0-1.4.3-1.5,1.5-.4,1.2,1,1.5,1,1.5-.4s1.1-1.6,5-1.6,5-.4,5-.8-.9-2.6-2-4.8-1.8-4.8-1.6-5.8-.2-3-.9-4.5c-2-3.8-1.8-6,.6-6.7.4-.1.7-.2,1.1-.2h.2ZM279.8,259.3c.6,0,1.3.3,2,.9.5.5,2.1,1.1,3.4,1.2,2,.3,3.2,1.8,5.9,7.1,3.3,6.5,3.5,6.8,6.4,6.2,2.2-.5,2.9-.3,2.5.7-.3.8-1.7,1.3-3.4,1.1-1.6-.1-3.4-.3-3.9-.3s-1.9.2-3.1.6c-1.4.4-2.3.2-2.7-.9-.5-1.2-1.5-1.5-4.5-1s-4,.3-4.5-1-1.5-1.5-4.4-1c-2.8.5-4.2.2-5.2-1-2-2.4-.6-4.4,3.8-5.7,3-.9,4.3-1.9,5-4.1.6-1.8,1.6-2.8,2.7-2.8h0ZM246.4,263.3c-.4,0-.9.5-1.1,1.1s.1,1,.8.8,1.1-.7,1.1-1.1c0-.6-.4-.8-.8-.8ZM285.2,263.3c-.5,0-1,.7-1,1.5s.5,1.3,1,1c1.3-.8,1.3-2.5,0-2.5ZM411.6,264.7c0,0-.3,0-.4.1-.5.3-1,1-1,1.5s.5,1,1,1,1-.7,1-1.6-.2-1-.6-1.1h0ZM278.8,266.3c-.9,0-1.6.5-1.6,1,0,1.3,1.7,1.3,2.5,0,.3-.5,0-1-.9-1ZM286.6,267.7c-.1,0-.3,0-.4.1-.5.3-1,1-1,1.5s.5,1,1,1,1-.7,1-1.6-.2-1-.6-1.1h0ZM271.2,268.3c-.5,0-1,.5-1,1s.5,1,1,1,1-.5,1-1-.4-1-1-1ZM247.7,268.3c-.3,0-.5.5-.5,1.5s.5,1.3,1,.9c.6-.3.8-1.1.4-1.6-.3-.5-.6-.8-.8-.9h-.1ZM251.7,268.3c-.3,0-.5.5-.5,1.5s.5,1.3,1,.9c.6-.3.8-1.1.4-1.6-.3-.5-.6-.8-.8-.9h-.1ZM339.6,268.5c-1.1,0-1.4.4-1.4,1.2s.8,1.6,1.9,1.6,2.2.5,2.6,1c.9,1.5,3.5,1.2,4.2-.6.8-2,.6-2.1-4.4-2.9-1.3-.2-2.2-.3-2.9-.3h0ZM407.4,269.7c-.3.1-.6.5-1.1,1.4-.6,1.1-1.1,2.5-1.1,3.1s.9,1.1,2,1.1c2.1,0,2.7-2.4,1.1-4.9-.4-.6-.6-.8-.9-.7ZM280.2,269.9c-.7,0-1,.4-1,1s1.1,1.4,2.5,1.4c3.2,0,3.2-1.6,0-2.2-.6-.1-1.1-.2-1.5-.1h0ZM411.2,270.5h-.3c-.4.1-.7.5-.7,1.2s.7,1.6,1.6,1.6,1.4-.5,1.2-1.2c-.3-1-1.1-1.6-1.8-1.6ZM382.6,270.7c.3,0,.8.2,1.7.6,1.1.6,2.7.9,3.5.6s3.3.7,5.7,2.1c4,2.5,4.3,3,4.2,7,0,3.5-.8,5.2-4,9-2.2,2.6-5.3,6.7-6.9,9.2-1.6,2.5-3.6,4.7-4.2,4.9-1.6.5-1.6-2.8,0-6.3.8-1.7.8-2.9.2-3.3-1.1-.8-3.4-9.5-3.8-14.6-.2-2.4.3-4.1,1.6-5.2,1-.9,1.8-2.3,1.8-3s0-.8.4-.9h-.2ZM337,272.3c-.7,0-1.7.3-2.7.9-.8.5-1.1,1.6-.8,2.6.5,1.4.9,1.5,2.2.5,1.2-1,1.5-.9,1.5.2s1.1,1.5,3.1,1.6q3,0,1.3-1.8c-1-1.1-2.4-1.9-3.2-1.9s-1.1-.5-.8-1c.4-.6,0-1-.7-1h.1ZM213,273h.4c.6,0,1,.3,1.4.8,1.2,1.2,1.1,1.6-.6,2.5-1.1.6-3.7,1.1-5.8,1.1s-4.5.6-5.2,1.2c-1.1,1-1.2,1-.6,0,.4-.7,3-2.4,5.8-3.7,2.4-1.1,3.7-1.7,4.7-1.8h0ZM313,273.3h.3c.1,0,.2,0,.3.2.2.2,0,1-.4,1.7-.5.9-1.1,1-1.5.3-.5-.8.4-2,1.2-2.2h.1ZM249.2,273.3c-.5,0-1,.7-1,1.5s.5,1.3,1,1c1.3-.8,1.3-2.5,0-2.5ZM329.7,274.3c-1.6,0-2,1.2-.8,2.3s2.3.7,2.3-.8-.7-1.5-1.5-1.5ZM351.2,274.3c-.5,0-1,.5-1,1s.5,1,1,1,1-.5,1-1-.4-1-1-1ZM383.6,274.6c0,0-.3.1-.4.2-.5.3-1,1-1,1.6s.5.7,1,.4,1-1.1,1-1.6-.2-.6-.6-.6ZM345.8,274.7c-.4,0-.6.4-.6,1.1s.5,1.6,1,1.6c1.3,0,1.3-1.7,0-2.5-.1,0-.3-.1-.4-.1h0ZM412.4,275.9h-.2c-.2,0-.3.2-.4.4-1,1.6,0,4,1.9,4s1.5.7,1.5,1.5.5,1.5,1,1.5c1.9,0,1-3.6-1.4-5.9-1.1-1-1.9-1.5-2.4-1.5h0ZM372.2,276.3c1,0,2,.2,2,.8,0,2-6.9,5.3-11.1,5.3s-4,.2-2.2,1c3.2,1.3,2.8,3.7-1.2,6-1.9,1.1-3.6,2.7-3.9,3.4s-2.3,2.3-4.4,3.4-4.5,2.7-5.2,3.5-2.3,1.6-3.4,1.5c-1.8,0-1.6-.5,1.8-3.4,2.2-1.9,4.3-3.2,4.6-3s1.2-.2,1.8-1c.9-1.1.8-1.5-.4-1.8-1.4-.3-1.2-1.1,1.2-5.8,3.3-6.3,5.9-8,12.5-8s5-.5,5.3-1c.4-.6,1.5-.9,2.5-1h.1ZM217.5,277.1c1.7-.1,0,2.1-4.8,5.4-5.7,3.9-12.8,12.3-17,19.9l-2.8,5.2,2.9-.7c1.6-.4,3.9-1.5,5.2-2.5,2.1-1.5,3-1.6,7.2-.5,2.6.7,5.7,1.7,6.7,2.3,2.3,1.2,4.2-.3,4.2-3.1s1-2.8,2.2-4l2.2-2.2-2.8-2.2c-2.8-2.2-2.8-2.3-1.2-5.7.9-1.9,1.7-4.7,1.7-6.3,0-2.5.1-2.6,1.3-1.1.7,1,2.3,2.3,3.7,2.9,3.9,2,6.3,5.9,5.5,9.1-.6,2.3-1.1,2.7-3.1,2.2-2.2-.5-2.3-.4-1.7,2,.6,2.3.4,2.6-1.2,2.1-2.8-.9-9.4,13.3-9.4,20.2s-3.6,9.9-11.2,3.8c-4.2-3.4-5.1-6.3-1.7-5.2,1.5.5,2,.3,1.7-.7-.6-1.9-4-2.3-5.2-.6-.6.8-2.5,1.7-4.3,2.1-2.7.5-3.2.4-3.2-1.2s-2.7-4.7-3.8-3.7c-.4.4-.8,2.3-.9,4.3-.3,4.2-1.4,5.6-3.7,4.7-2-.8-1.8-5.1.2-4.7.7.1,1.2-.2,1.2-.7s.3-1.6.6-2.5c1.2-3.2-2.4-1.6-4.5,2-2.4,4.1-2.8,8-.7,7.2.8-.3,1.8.5,2.5,2,.9,2,.8,3.2-.4,5.6-.8,1.7-1.5,3.9-1.5,4.9s-.4,1.8-1,1.8-1-1.3-1-2.9-.6-3.4-1.4-4c-1.8-1.5-2.7-6.3-1.5-7.8.5-.6,1.1-3,1.3-5.4.2-2.4,1.1-4.7,2-5.2,1.2-.7,1.3-1.3.4-3.2-.9-1.9-.7-3.3,1.1-7,2.2-4.6,4.3-6.2,3.3-2.7-.3,1.3.3,2.5,2.1,3.6,2.7,1.8,4.6,1.3,4.6-1.1,0-5.7,12.3-19.6,21.9-24.8,2.2-1.2,3.7-1.7,4.4-1.8v.2ZM409,278.3c-1.1.2-.9,2.2.5,5.3,1.3,2.8,3.8,3.7,3.8,1.3s-.7-1.9-1.5-2.6-1.5-1.9-1.5-2.6-.4-1.4-1-1.4,0,0-.2,0h0ZM386.4,278.5c-.6,0-1.6.5-2.7,1.2-2.4,1.6-3.3,4.5-1.8,6s1.1-.2,1.5-1.4,1.2-1.8,1.7-1.5c1,.6,2.6-3.2,1.7-4.2s-.2-.1-.4,0h0ZM391.2,279.3c-.5,0-1,.7-1,1.5s.5,1.5,1,1.5,1-.7,1-1.5-.4-1.5-1-1.5ZM307.3,279.5c-.2,0-.5.1-.8.2-1,.4-2.8,1-4,1.2-2.6.6-3.6,1.8-2.7,3.3.4.6,1.1.7,1.8.2.6-.5,2.4-1.2,3.9-1.6,1.6-.4,2.8-1.3,2.8-2.2s-.3-1.2-.9-1.1h0ZM406.2,280.3c-.5,0-1,.5-1,1s.5,1,1,1,1-.5,1-1-.4-1-1-1ZM376.4,280.4c.2,0,.3,0,.4.1.3.3.5,1.7.3,3.1-.3,2.3-.5,2.4-2.3,1.1s-1.9-1.6-.3-3.1c.7-.7,1.4-1.1,1.9-1.2h0ZM355.5,283.8c-.1,0-.2.2-.2.5,0,.8-.4,2.5-.7,3.8-.3,1.2-.2,2.2.4,2.2,1.6,0,2.2-2.8,1.2-5.2-.3-.8-.6-1.3-.8-1.2h.1ZM388.4,284.4c-1.1,0-3.1,2.2-2.6,3,.3.5.9.9,1.4.9,1,0,2.3-3.1,1.6-3.8s-.2-.1-.4-.1ZM403.1,284.8l-.3,13c-.2,8.9-.9,14.5-2,17.7-.9,2.6-2.3,5.2-3.1,5.9-1.9,1.6-1.9,1.2,1.2-7.8,1.7-5,2.9-11.5,3.4-18.2l.8-10.5h0ZM416,284.8c-.4,0-.7.4-1.3,1.2-.7,1-1.4,2.6-1.4,3.5,0,2.3,1.3,2.2,3.5-.2,1.5-1.6,1.5-2.2.5-3.5-.6-.7-.9-1-1.2-1h0ZM306.2,285.3c-1.6,0-3.3.7-4,1.9-.6,1.1-1,2.7-1,3.6,0,2.4,2.5,1.2,2.8-1.3.4-2.4,2.1-2.8,3.9-1s2.7.4,1.9-1.6c-.4-1.1-2-1.6-3.7-1.6h.1ZM347.8,286c.3,0,.4,0,.4.1,0,1.1-12.3,6.7-17.5,8-7.3,1.8-13.5,2.4-13.5,1.2s1.3-1.1,2.8-1.1c4.5,0,17.5-3.6,23.1-6.5,2.1-1.1,3.9-1.8,4.7-1.8h0ZM224.6,286.3c-1.3,0-1.4.3-.4,1.5,1.6,1.9,2,1.9,2,0s-.7-1.5-1.6-1.5ZM290.8,286.7c-.4,0-.6.4-.6,1.1s.5,1.6,1,1.6c1.3,0,1.3-1.7,0-2.5-.1,0-.3-.1-.4-.1h0ZM383.9,287.5c-.2,0-.4.1-.7.3-.5.3-1,1.2-1,2s.7,1.5,1.6,1.5,1.4-.6,1-1.6c-.3-.9-.6-1.8-.6-2.1s0-.2-.3-.2h0ZM257.6,287.6c.2-.2,5.8,1.4,12.5,3.7,6.7,2.2,12.9,4.1,13.9,4.1s2.4.5,3.2,1c.8.5,1.1.9.5.8-5.7-.8-7.8-1.2-13-2.5-6.2-1.6-17.8-6.4-17.1-7.1ZM391.6,288.8c-.3,0-.8,0-1.4.2-2.4.6-3.3,1.9-2.5,3.2.3.6,1.4.2,2.5-.7,1.9-1.6,2.4-2.6,1.4-2.7ZM222.8,289.7c-1-.1-1.8,1.5-1.1,2.6.3.5,1,1,1.6,1,1.2,0,1.2-2.7,0-3.5-.1,0-.3-.1-.4-.2h-.1ZM228.6,290.7c-.1,0-.3,0-.4.1-.5.3-1,1-1,1.5s.5,1,1,1,1-.7,1-1.6-.2-1-.6-1.1h0ZM305.7,292.3c-.3,0-.5.3-.5,1s.5,1,1.1,1,.8-.5.4-1c-.4-.6-.8-1-1-1ZM248.3,292.8h-.2c-.5.3-.6,1-.3,1.5.9,1.5,2.4,1.1,1.8-.6-.3-.7-.8-1.1-1.3-1h0ZM386.2,293.3c-.5,0-1,.5-1,1s.5,1,1,1,1-.5,1-1-.4-1-1-1ZM358.3,295.3c.3,0,1.1,1.1,1.7,2.5,1,2.2.9,2.5-.8,2.5-3.1,0-2.3,1.9,1.3,3.5,1.8.8,3.9,2.1,4.6,3,1.4,1.7,4,2.1,4,.6s-.6-1.6-1.4-2.4c-1.3-1.3-1-1.5,2.2-2.1,2-.3,5-.9,6.6-1.2l2.8-.7-2.1,3.9c-1.1,2.1-2.3,5.1-2.6,6.7-.6,3.2-3.5,3.8-3.5.8s-.7-2-3-2-3.9-.9-5-2-3.1-2-4.5-2-3.3-.9-4.2-2-2.4-2-3.2-2c-1.3,0,5.6-6.9,7-7h.1ZM237.9,296.3l5.6,3.1c7.2,3.9,25,8.4,39.5,10,19.1,2.1,46.4.2,57.2-3.9,3.2-1.2,11.6,1.3,20.2,6.2,10.5,5.9,10.6,5.2-2.2,17.6-11.1,10.7-12.3,11.6-19.1,14.1-20.9,7.5-41.7,11.6-64,7.4-18.8-3.7-44.2-9.4-53.9-27.7-.7-2-.9-5-.6-6.6,1-4.7,6.1-11.5,11.9-16l5.3-4.1h.1ZM313.6,301.5c-.2,0-.3.6-.3,1.4,0,1.2.3,1.4.6.6.3-.7.3-1.6,0-1.9h-.3ZM299.3,303.4c-.3,0-.6,0-.8.2-.3.3.3.6,1.3.5,1.2,0,1.4-.3.6-.6-.4-.1-.7-.2-1.1-.2h0ZM372.2,304.3c-.5,0-1,.7-1,1.5s.5,1.5,1,1.5,1-.7,1-1.5-.4-1.5-1-1.5ZM182.6,305.5c-.2,0-.3.6-.3,1.4,0,1.2.3,1.4.6.6.3-.7.3-1.6,0-1.9h-.3ZM381.4,306l3.3,3.2c2.3,2.3,3.6,4.8,4.5,8.6.7,3,1.6,5.7,2.1,6s.9,1.4.9,2.5c0,2.3.8,2.4,3.4.4,2.8-2.1,4.4-1.8,5.2,1,.5,2.1.9,2.3,2.1,1.3,1-.8,1.1-1.4.4-1.8-1.8-1.1-.2-3.4,3.6-5.2,2.7-1.3,3.2-1.3,2.3-.2-.9,1-.9,1.7,0,2.5s.6,1.8-.8,3.6c-2.3,3-2.5,4.4-.4,3.6,1.1-.4,1.3-.1.9,1-.3.9-2.2,2.1-4,2.7-2.7.9-3.2,1.4-2.5,2.7,1,1.8-4.7,10.5-8,12.3-1.1.6-1.9,2.1-1.9,3.5s-.6,2.5-1.3,2.5c-1.4,0-1.2-4.5.4-6.5.4-.5.5-4.8,0-9.5-.6-8.3-.7-8.5-3.2-8.2-1.4.2-3.6,1.1-5,2-3.7,2.5-12.9,4.5-14.6,3-1-.9-2-.7-3.9.5-1.4.9-2.5,2.2-2.5,2.8s-.9.1-1.9-1.2l-1.8-2.4-1.7,5.7c-1.5,5.2-1.9,5.7-4.3,5.4-3.5-.4-4,1.6-.8,3,2.7,1.2,3.3,3.6,1.2,4.9-.7.4-1.8,1.9-2.4,3.3l-1.2,2.5-.7-2.2c-1.3-4.3-2.6-2.4-1.9,2.6.6,4.2.3,5.2-1.4,6.8l-2,1.9,3.7,1.3c2,.7,5.9,1.6,8.7,1.9,3.8.5,5.1,1.1,5.4,2.5s0,1.7-1.6,1.2c-1.2-.4-2.5,0-3.2.9-.7.8-2.4,1.5-3.7,1.5s-4.9,1.6-8,3.6c-3.6,2.3-5.9,3.2-6.6,2.6s-2.5,0-5.1,1.4c-4.5,2.6-6.2,2.9-7.1,1.5-.5-.9,5.5-6.9,8.7-8.7.8-.5,2.2-2.6,3.1-4.6s2-3.8,2.6-3.8,1-.5,1-1.1c0-1.7-6.5-4-11.2-4s-11-1.6-15.3-5.3l-3.9-3.3,3.8-1.2c2.9-1,4.1-1,5.2,0,1.2,1,2,.7,4.5-1.4,1.8-1.5,4.3-2.6,6-2.6s3.8-.9,4.9-2,2.8-2,3.9-2,2.4-.7,3.1-1.5c.9-1.1,1.7-1.2,3.1-.5,2.9,1.6,3.9,1.2,3.9-1.6s6.9-10,11.3-11.7c.9-.4,2.6-2.2,3.8-4.2,1.3-2.3,2.8-3.5,4.2-3.5,2.9,0,4.4-1.1,4.8-3.4.2-1.1,1.7-2.4,3.6-3,1.8-.6,3.8-1.6,4.4-2.3,1-1,.6-1.2-1.9-1.2s-4.2-1.3-2.1-2.6c.6-.4,1.8-2.3,2.6-4.2l1.5-3.5-.3.2ZM204,306.1c-.6,0-1.4.2-2.4.8-1.3.9-2.5,2-2.5,2.5,0,1.3,2.4,1.1,4.5-.5,2-1.4,1.7-2.8.4-2.8ZM418.3,306.4c.5,0,.9.9.9,2.8s-1.3,4.6-3.2,7c-2.9,3.7-4.8,5.2-4.8,3.7s1.1-2.2,2.4-4.2,2.8-5,3.1-6.5c.4-1.8,1.1-2.7,1.6-2.7h0ZM210.2,307c-.6,0-1.2.2-1.4.9-.8,2.1.2,3.4,2,2.7,1-.4,1.7.1,2.1,1.5.7,2.6,2.3,2.9,2.3.4s-3-5.5-5-5.6h0ZM185.2,308.3c-.5,0-1,.9-1,2s.5,1.8,1,1.5c1.3-.8,1.3-3.5,0-3.5ZM195.2,308.3c-.5,0-1,.5-1,1s.5,1,1,1,1-.5,1-1-.4-1-1-1ZM205,310.5c-.6,0-1.3.6-1.6,1.6-.2.7.3,1.2,1.2,1.2s1.6-.7,1.6-1.6-.5-1.2-1.2-1.2ZM190.7,311.3c-.8,0-1.5.5-1.5,1s.7,1,1.5,1,1.5-.5,1.5-1-.7-1-1.5-1ZM194.2,312.4h-.3c-.1,0-.2,0-.3.2-.3.3-.2,1,.1,1.6.8,1.3,2.5,1.4,2.5.1s-1.1-1.9-2-1.9h0ZM381.6,312.6c-1.4,0-2.4.6-2.4,1.7s.8.8,2,.5c1.1-.4,2-.2,2,.4s.9,1.1,2,1.1c2.9,0,2.5-1.9-.7-3.1-1.1-.4-2.1-.6-3-.6h.1ZM208.2,314.3c-.5,0-1,.7-1,1.5s.5,1.5,1,1.5,1-.7,1-1.5-.4-1.5-1-1.5ZM211.2,315.3c-.5,0-1,.7-1,1.5s.5,1.5,1,1.5,1-.7,1-1.5-.4-1.5-1-1.5ZM206.7,320.3c-.8,0-1.5.7-1.5,1.5s.7,1.5,1.5,1.5,1.5-.7,1.5-1.5-.7-1.5-1.5-1.5ZM212.7,321c-.5,0-1,.5-1.3,1.2-.2.5.4,1,1.3,1s1.5-.6,1.2-1.2c-.2-.7-.8-1.1-1.3-1h0ZM382.8,321.3c-.9,0-1.6.7-1.6,1.6s.5,1.4,1.2,1.2c1.9-.6,2.2-2.8.4-2.8h0ZM191.2,323.3c.6,0,1,.6,1,1.3,0,3,7.5,16,12.2,21.2,5.2,5.7,5.8,7.2,2.3,5.3-5.3-2.8-10.1-9.2-13.4-17.6-2.6-6.7-3.3-10.2-2.1-10.2h0ZM377,323.3c-1,0-1.4,1.2-1.4,4.4s.4,4.2,1.2,3.9c1.5-.6,2.7-4.7,1.5-5.1-.5-.2-.6-1-.3-1.8s0-1.4-.9-1.4h0ZM387.4,323.8c-.2,0-.4,0-.7.1-.8.3-1.5,1.2-1.5,2s.7,1.4,1.5,1.4,1.5-.9,1.5-2-.2-1.5-.8-1.5ZM180.3,327.5c-1.2,0-2.3,1.5-1.6,2.7,1,1.6,3.5,1.3,3.5-.4s-.5-1.7-1.1-2.1c-.3-.2-.5-.2-.8-.2ZM528.1,328.3c2,0,5.1,2.4,5.1,4s-1.5,1.7-4.2.2c-3.2-1.6-3.7-4.2-.8-4.2h0ZM371,328.3c-.3,0-.8.1-1.3.3-.8.3-1.6,1.5-1.6,2.6,0,2.7,2.7,2.6,3.5,0,.6-1.9.3-2.8-.7-2.9h0ZM384.2,329.3c-.5,0-1,.4-1,1s.5.8,1,.5c1.3-.8,1.3-1.5,0-1.5ZM397.2,329.3c-.5,0-1,.5-1,1s.5,1,1,1,1-.5,1-1-.4-1-1-1ZM217.4,329.3c.5,0,.8.6.8,1.5s.9,1.5,2.1,1.5,2,.4,1.6,2c-.8,3.1,1.1,8.7,3.5,10.4,3,2.1,3.3,1.2.8-2.2-2.4-3.2-2.3-6.7,0-6.7s1.5,1.1,1.6,3c0,1.6.2,3.4.2,3.9s.8,0,1.6-1q1.5-1.9,2.1.2c.4,1.3,1.7,2.4,3.5,2.7,2.1.4,2.7,1,2.3,2.1-.3.8,0,1.5.5,1.5s1.1-.5,1.1-1.2.7-.5,1.8.5c1,.9,3.2,1.7,4.9,1.7s3.8.3,4.7.6c2.8,1.1,1.7,2.4-1.9,2.4s-3.7.5-4.1,1.1-1.3.8-2,.5c-.8-.3-1.6-.1-1.9.3-1,1.7-9,2-10.7.4-1.5-1.4-1.8-1.3-2.8.6-1.2,2.3-2.7,2.6-5.1,1.1-.8-.5-2.5-1-3.7-1-2.3,0-2.5-.6-3.7-11.2-.5-4.3-.3-4.7,1.7-5,2.9-.4,2.9-3.2,0-3.7-2.5-.3-3-3-1-5s1.5-1.2,2-1.2v.2ZM524.3,332.3c1.4,0,6.9,5.5,6.9,6.9s-2.8,1.2-3.5-.9c-.3-1.1-1.5-2.2-2.6-2.6-2-.6-2.7-3.5-.9-3.5h0ZM402.3,333.3c-.5,0-1.3.5-1.6,1s0,1,.4,1,1.3-.5,1.6-1,.2-1-.4-1ZM373.6,333.5c-.2,0-.3.6-.3,1.4,0,1.2.3,1.4.6.6.3-.7.3-1.6,0-1.9h-.3ZM363.2,334.3c-.5,0-1,.4-1,1s.5.8,1,.5c1.3-.8,1.3-1.5,0-1.5ZM521.6,336.3c1.8,0,7.8,6.8,7.1,8.1-.9,1.5-1.8,1-5.2-3-3.6-4.2-3.9-5-1.8-5h0ZM396.2,337.3c-2,0-2.5,1.5-1.4,4.4,1.1,2.8,3.4,1.8,3.4-1.4s-.4-3-2-3ZM386.6,337.5h.2c2.2,2.2-14,20-22.9,25.2-5.9,3.4-11.7,5.8-11.7,4.7s1.9-1.9,4.2-3.1c8.8-4.6,21.1-15.5,27.5-24.5,1-1.4,2.1-2.4,2.7-2.3h0ZM408.1,338.5c.2,0,.5,0,.9.2.9.3,7.5,1,14.7,1.6s13.2,1.3,13.6,1.5,1,1.7,1.3,3.2c2.5,12.2,4.1,17.3,5.6,17.4,9.8.7,19.1.4,19.1-.7s.7-1.5,1.5-1.8c1.8-.7,1.9.7.3,3.3-1,1.6-.8,2.3.9,4.2,1.5,1.7,1.8,2.9,1.2,4.3q-.8,1.9-1.5-.2c-.8-2.8-1.5-2.8-4.7-.2-3.1,2.5-3.7,2.4-11.8-1-4.8-2-6.6-3.3-6.8-4.8-.4-2.4-4.9-6.5-6.3-5.6-.5.3-.2,1.2.8,1.9,2.3,1.7,1.3,2.8-2,1.9-2.5-.6-4.5-2.2-16.2-12.6-2.9-2.6-6.2-5.1-7.2-5.7-1.1-.6-2.4-2.5-3-4.2-.7-2-.9-2.7-.2-2.7h-.2ZM519.2,340.3c.4,0,.9.6,1.6,1.5.8,1.1,2.3,3,3.4,4.3,1.1,1.3,1.8,2.7,1.5,3.2-1.3,2.1-3,.7-5.9-4.9-1.3-2.6-1.4-4.4-.6-4.2h0ZM352.8,340.7c-.4,0-.6.4-.6,1.1s.5,1.6,1,1.6c1.3,0,1.3-1.7,0-2.5-.1,0-.3-.1-.4-.1h0ZM220.2,341.3c-.5,0-1,.7-1,1.5s.5,1.5,1,1.5,1-.7,1-1.5-.4-1.5-1-1.5ZM414.3,342.3c-2,.3-1,2.5,2.7,5.7,4.4,3.8,5.2,4,5.2,1.3s-1-2.5-3.2-2.1c-.4,0-1.2-1-1.8-2.4-.5-1.4-1.6-2.5-2.5-2.5s-.3,0-.4,0ZM421.1,342.3c-2.3,0-2.4.8-.2,3.2,1.9,2.1,2.9,2.3,3.9.8.9-1.5-1.4-3.9-3.7-3.9h0ZM515.7,342.4h.7c1,.3,2.7,4.3,4.6,10.1.9,2.9-1.7,2-2.8-1-.6-1.5-1.7-3.5-2.6-4.5-1.4-1.6-1.2-4.4.2-4.7h-.1ZM429,342.5c-.6,0-1.3.6-1.6,1.4-.2.6.3,1,1.2,1s1.5-.6,1.5-1.4-.5-1.1-1.2-1h0ZM434.3,343.3c-1.2,0-4.1,5.7-3.3,6.4s2.1.6,3.2-1.4c1.3-2.4,1.4-5.1,0-5.1h0ZM219.1,346.3c-1,0-1.2,1.4-.2,2.3,1.2,1.2,2.3.7,1.7-.8-.3-.8-1-1.5-1.5-1.5ZM232.2,346.5h-.3c-.4.1-.7.5-.7,1.2s.7,1.6,1.6,1.6,1.4-.5,1.2-1.2c-.3-1-1.1-1.6-1.8-1.6h0ZM511.8,347.6c.9-.3,4.4,6.8,4.4,9s-1.7.2-3.3-3.6c-1-2.3-1.9-4.4-2-4.7,0-.2.3-.6.9-.8h0ZM425.7,349.3c-2.3,0-1.8,1.8,1.2,5.1,3,3.1,3.8,3.5,4.8,1.9.3-.6,0-1.3-1-1.6s-2-1.7-2.5-3-1.6-2.3-2.4-2.3h0ZM241.2,349.3c-.5,0-1,.3-1,1s.7,1,1.6,1,1.3-.5.9-1c-.4-.6-1-1-1.5-1ZM223.6,350.3c-.9,0-1.3.4-.9,1s1,.8,1.5.4c1.4-.9,1.1-1.4-.6-1.4ZM340.3,350.3c-1.2,0-2.1.6-2.1,1.5,0,1.9,1.4,1.9,3,0,1-1.3.9-1.5-.9-1.5ZM506.9,350.4h.9c1.1.2,2,1.4,2.2,2.8s.7,2.9,1.2,3.4.9,2,.9,3.2c0,3.7-1.6,2.7-3.2-1.9-.8-2.3-1.8-5.1-2.3-6.1-.5-1.1-.5-1.5.2-1.6v.2ZM232.7,351.3c-.8,0-1.5.5-1.5,1s.7,1,1.5,1,1.5-.5,1.5-1-.7-1-1.5-1ZM345.7,351.3c-1.6,0-2.8,1.4-1.8,2.3s2.1.7,2.7-.8c.3-.9,0-1.5-.8-1.5h-.1ZM433.5,351.9c-.4,0-.7.2-.9.5-.3.6.2,1.9,1.1,3,2.2,2.4,4.4,2.5,4.4,0s-3-3.7-4.7-3.6h.1ZM258.8,351.9c2.7-.1,4.3,1.2,2.2,2.4-3.4,2-.6,2.9,8,2.4,5.5-.3,9.1,0,9.9.6.7.6,2.5.8,4,.4,2.2-.6,2.5-.4,1.5.8-1.5,1.8-.6,2.7,2.6,2.7s2.3-.4,1.8-1.6c-.8-2.1,2.2-3.1,4.6-1.6,1.9,1.2,4.3.6,3.4-.7-.2-.4,1.4-.8,3.5-.9,4.7-.3,6,1.7,3.2,4.8-1.4,1.6-2.8,2-6.1,1.7-4.5-.4-5.4,1.2-1.3,2.2,3,.7,3.9,3,1.1,3s-3.1,1.1-4.3,2.4c-3.1,3.3-7.3,4.7-11.7,4-3.5-.6-3.5-.5,1.8,2.5,7.1,4,16.4,12.8,14.4,13.5-3.1,1.2-11.9.5-14.2-1.1-1.9-1.3-2.8-1.4-4.2-.5-3.8,2.4-6.9.2-6.9-4.8s-.6-2.1-2-2.1c-2.2,0-2.6,2-.8,3.8,2.8,2.8-4.6,3.6-9.2,1-1.3-.7-1.2-.8.2-.8,2.3,0,2.2-1.7-.2-3-1.4-.7-2.7-.7-4.5.1-2.2,1-2.9.9-4.2-.5-2.1-2.1-.9-3.3,2-2,1.7.8,3.9.7,8.2-.4,4.4-1.1,6.3-1.2,7.7-.4,1.5,1,1.8.8,1.8-1.3s.7-2.7,1.5-3c2.2-.8-2-6.8-6.8-9.5-3.8-2.2-4.6-3.9-2.7-5.8s0-1.2-2.9-1.7c-6.4-1-8.4-5.8-2.8-6.8.4,0,.8-.1,1.2-.2l.2.4ZM503.7,352.3c1.9,0,2.2.6,3,7.2.6,4.9.5,5.8-.9,5.8s-1.6-.9-1.6-2.6-.7-3.9-1.5-5.5c-1.6-3.1-1.3-4.9,1-4.9ZM350.6,352.4h-.5c-.7.2-1.5,1-1.8,1.8s.1,1.1.9.9,1.5-1,1.8-1.8,0-.9-.4-1h0ZM333.6,354.6c-.1,0-.3,0-.4.2-.5.3-1,.8-1,1s.5.5,1,.5,1-.5,1-1.1-.2-.7-.6-.6ZM498.7,354.8c1.4,0,2.4,2.7,2.7,7.4.2,3.2,0,5.5-.7,5.8-1.5.5-2.4-.7-2.4-3.3s-.5-3.4-1.1-4.8c-.9-2-.9-2.9.2-4.1.5-.6,1-.9,1.5-.9h-.2ZM493,356.3h.2c.3,0,.7.2,1,.6.6.6.9,3.9.8,7.4-.4,8.7-2.4,8.9-3.1.3-.4-5.2,0-8.1,1.1-8.3ZM217.1,356.8c.1,0,.3,0,.5.2.7.3,1.6,1.5,1.9,2.8.3,1.2,1.9,4,3.6,6.1,1.9,2.4,2.8,4.5,2.5,5.6-.3,1,0,2.8.6,3.9,1.5,2.8,1,3.1-2,1.5-1.4-.7-3.3-1.6-4.2-1.9s-2.1-1.5-2.5-2.6c-.7-1.8-1-1.9-3.5-.6-2.7,1.4-2.8,1.4-2.8-1.9s-1.7-5.5-2.6-1.9c-.6,2.6-.7,2.6-2.1.8-.8-1-1.2-2.9-1-4.2.3-1.7,0-2.2-1.4-2.2s-2.1.5-2.5,1.1-1.4.8-2.3.4-2.3-.8-3.1-.9c-2.8-.5-2.2-2.5.7-2.4,1.6,0,4.2-.7,6-1.6,3.5-1.8,9.8-2.2,8.8-.6-.3.5-1.9,1-3.6,1s-2.9.5-2.9,1,1.4,1,3,1,3-.5,3-1,1.4-1,3.1-1,2.9-.4,2.5-1.5c-.3-.7-.2-1.1.3-1.1h0ZM341,356.8c-.6,0-1.3.5-1.6,1.3-.3.9.2,1.2,1.4,1,1-.2,1.7-.8,1.6-1.3-.2-.7-.8-1-1.4-.9h0ZM326.3,357.3c-.5,0-1.2.3-1.6,1-.3.5,0,1,.9,1s1.6-.5,1.6-1-.4-1-.9-1ZM300.7,358.3c-.8,0-1.5.5-1.5,1s.7,1,1.5,1,1.5-.5,1.5-1-.7-1-1.5-1ZM471.8,358.3c1.9,0,1.9,8.9,0,13.5-1.6,3.9-4.2,4.9-3.1,1.2.4-1.2.9-5.1,1.2-8.5.4-4.4.9-6.2,1.9-6.2h0ZM486.6,358.5c2.8.1,3.2,11.1.4,14.6-1.1,1.4-2.4,1.6-3.1.5-.2-.4-.2-3.9.2-7.8.5-5.3,1-7.1,2.2-7.3h.3,0ZM478.4,358.6c.4,0,.8.1,1.2.3,1.5.6,1.7,1.5,1.2,5.6-.4,2.7-1.2,6-1.8,7.3-.6,1.4-1.7,2.5-2.4,2.5s-1.2-1.7-.7-7.2c.5-6.5,1-8.5,2.5-8.5h0ZM270.3,358.8c-.3,0-.5,0-.8.2-2.9,1-3.3,1.4-2.7,2.4s1.9.9,3.5.9c2.6,0,2.9-.2,1.9-2-.5-1-1.2-1.5-2-1.5h.1ZM318.2,359.3c-.5,0-1,.5-1,1s.5,1,1,1,1-.5,1-1-.4-1-1-1ZM277.7,361c-.5,0-1,.5-1.3,1.2-.2.5.4,1,1.3,1s1.5-.6,1.2-1.2c-.2-.7-.8-1.1-1.3-1h0ZM228.1,361.8c1.6,0,5.5.9,11.2,2.5,18.5,5.1,26.8,8.1,26.8,9.6s-.3,1.4-.8,1.3c-2-.3-31.3-9.8-34.7-11.2-3.5-1.5-4.3-2.2-2.7-2.2h.2ZM331.6,361.8c-.4,0-.9.3-1.8.7-1.4.6-2.3,1.6-2,2.1.9,1.5,3.8.4,4.2-1.5.2-1,.2-1.3-.4-1.2h0ZM323.8,362.3c-.9,0-1.6.5-1.6,1,0,1.3,1.7,1.3,2.5,0,.3-.5,0-1-.9-1ZM288.2,362.5c-1.1,0-2,.5-2,.9,0,1.1,2.8,1,3.5-.1.3-.5-.3-.9-1.4-.8h-.1ZM267.7,363.3c-.3,0-.5.3-.5,1s.5,1,1.1,1,.8-.5.4-1c-.4-.6-.8-1-1-1ZM461.6,363.3c-1.4,0-4.4,2.6-4.4,3.8,0,2.4-2.2,2.2-4.6-.3-2.4-2.6-5.4-3.1-6.1-1-.2.5,1.1,1.7,2.9,2.7,3.3,1.7,10.6,1.6,13.7-.2,1.3-.7,1.3-.9-.2-1.5-.9-.4-1.4-1.3-1.1-2.1.3-.8.2-1.4-.3-1.4h0ZM213.6,363.4c-1.8,0-1.7.9.3,3.1,2.2,2.5,3.6,2.3,3.2-.4-.2-1.4-1.1-2.4-2.6-2.6h-.9ZM337.6,363.5c-.2,0-.3.6-.3,1.4,0,1.2.3,1.4.6.6.3-.7.3-1.6,0-1.9h-.3ZM272.2,364.3c-.5,0-1,.5-1,1s.5,1,1,1,1-.5,1-1-.4-1-1-1ZM282.6,364.7c-.1,0-.3,0-.4.1-.5.3-1,1-1,1.5s.5,1,1,1,1-.7,1-1.6-.2-1-.6-1.1h0ZM342.2,364.9c-.6.1-1,.6-1,1.5s1,1,2.1,1c1.8,0,1.9-.3.9-1.5-.6-.8-1.4-1-2-.9h0ZM221.2,367.3c-.5,0-1,.5-1,1s.5,1,1,1,1-.5,1-1-.4-1-1-1ZM276.8,368.3c-1.5,0-2.8,1.4-2,2.2s3.5.4,3.5-.9-.6-1.3-1.4-1.3h-.1ZM231.7,368.5h.4c.6,0,1.1.4,1.1,1.2s-.9,1.7-2.1,2c-1.5.4-2,.1-1.7-1.1.2-1.1,1.3-1.9,2.3-2h0ZM283.7,371.3c-.3,0-.5.3-.5,1s.5,1,1.1,1,.8-.5.4-1c-.4-.6-.8-1-1-1ZM346.6,373.5c-.2,0-.3.6-.3,1.4,0,1.2.3,1.4.6.6.3-.7.3-1.6,0-1.9h-.3ZM331.7,373.8c3.6,0,1.5,1.9-5.8,3.5-4.6,1-27,1.2-33.2.3-7.8-1.1-3-1.9,11.8-1.9s18.9-.6,22.2-1.2c1.8-.3,3.2-.5,4.2-.6h.8ZM352.3,376.4c-.3,0-.6.1-1,.3-.6.4-.8,1.1-.5,1.7.4.7,1,.7,1.7,0,1-1,.6-1.9-.2-2ZM276.5,377.3c-1.3.2-1.7,2.2-.6,3.3s2.3.7,2.3-1.3-.7-2-1.5-2-.2,0-.2,0h0ZM343.7,378c-.5,0-1,.5-1.3,1.2-.2.5.4,1,1.3,1s1.5-.6,1.2-1.2c-.2-.7-.8-1.1-1.3-1h0ZM283.6,381.3c-.9,0-1.3.4-.9,1s1,.8,1.5.4c1.4-.9,1.1-1.4-.6-1.4ZM335.2,381.3c-.5,0-1,.5-1,1s.5,1,1,1,1-.5,1-1-.4-1-1-1ZM342.6,381.4h-.5c-.7.2-1.5,1-1.8,1.8s.1,1.1.9.9,1.5-1,1.8-1.8,0-.9-.4-1h0ZM288.2,383.3c-1,0-2,3.7-1.2,4.4,1.1,1.1,1.7.5,1.9-1.9,0-1.4-.2-2.5-.6-2.5h0ZM278.2,384.3c-.6,0-1.1.3-1.4.8s-.3,1.1,0,1.5c1.3,1.3,4.3.7,3.7-.8-.4-1-1.4-1.6-2.4-1.5h0Z"/>
          <path id="text2396" d="M48.5,450.2l-.2,2.9c-.8,4.9-3.1,9.1-7.1,12.5-4.2,3.6-9,5.3-14.5,5.3H9.8v-1.6h3.2c.8,0,1.5-.5,1.9-1.4.1-.3.2-.6.2-.8v-32c0-.8-.4-1.5-1.3-2-.3-.2-.6-.2-.8-.2h-3.2v-1.6h22.9c6.2,0,10.6,2.8,13.4,8.3,1.6,3.1,2.4,6.6,2.5,10.5M43.3,449.5c-.4-5.5-2-9.7-4.9-12.8-2.2-2.2-4.8-3.4-7.8-3.4h-8.6c-1,0-1.7.7-2.1,2,0,.3-.1.6-.1,1v29.7c0,1.3.4,2.2,1.3,2.8.3.2.6.2.9.2h5.6c4.7,0,8.6-2,11.6-6.1,2.6-3.5,4-7.5,4-12.2v-1.3M72.1,472.3c-6.9,0-12.2-2.5-16-7.6-2.7-3.7-4.1-8.1-4.1-13.1s.7-6.9,2.2-10c2.5-5.2,6.4-8.5,11.8-10,1.9-.5,3.9-.8,6.1-.8,6.9,0,12.2,2.5,15.9,7.6,2.7,3.7,4.1,8.1,4.1,13.1s-.2,4.3-.8,6.3c-1.5,5.4-4.5,9.4-9.1,12-2.9,1.6-6.3,2.5-10.1,2.5M72.1,471h0c5,0,8.9-2.4,11.6-7.3,1.9-3.4,2.8-7.5,2.8-12.1s-.3-5.1-1-7.5c-1.5-5.4-4.2-9-8-10.9-1.6-.8-3.4-1.2-5.3-1.2-5,0-8.8,2.4-11.5,7.3-1.9,3.5-2.8,7.5-2.8,12.1s1.3,10,3.8,13.7c2.6,3.9,6.1,5.8,10.5,5.8M139.1,433h-2.9c-1.7,0-2.9,1.1-3.5,3.2-.2.8-.4,1.5-.4,2.3v32.5h-3.8l-23.3-35.9v28.7c0,1.8.6,3.3,1.7,4.5.6.7,1.4,1,2.2,1h2.3v1.7h-14.3v-1.7h2.9c1.6,0,2.7-1,3.5-3.1.3-.8.4-1.6.4-2.4v-28.6c0-.9-.4-1.5-1.3-2-.3-.2-.6-.2-.8-.2h-3.1v-1.6h9.4l23,34.9v-27.7c0-2.1-.6-3.7-1.7-4.7-.6-.5-1.3-.8-2.1-.8h-2.3v-1.7h14.3v1.7M180.4,441.8h-1.4c-.8-3-2.6-5.4-5.5-7-1.7-1-3.4-1.4-5.3-1.4h-4.8c-1,0-1.7.7-2.1,2,0,.3-.1.6-.1,1v30.8c0,1,.4,1.6,1.3,2,.2.1.5.2.8.2h3.2v1.6h-15.4v-1.6h3.2c.8,0,1.5-.5,1.9-1.4.1-.3.2-.6.2-.8v-30.8c0-1.5-.5-2.4-1.4-2.9-.2,0-.5-.1-.8-.1h-2.5c-4.2,0-7.4,1.4-9.6,4.1-1,1.2-1.6,2.7-1.9,4.3h-1.5l3.5-10.5h34.7l3.4,10.4M240.9,441.8h-1.4c-.8-3-2.6-5.4-5.5-7-1.7-1-3.4-1.4-5.3-1.4h-4.8c-1,0-1.7.7-2.1,2,0,.3-.1.6-.1,1v30.8c0,1,.4,1.6,1.3,2,.2.1.5.2.8.2h3.2v1.6h-15.4v-1.6h3.2c.8,0,1.5-.5,1.9-1.4.1-.3.2-.6.2-.8v-30.8c0-1.5-.5-2.4-1.4-2.9-.2,0-.5-.1-.8-.1h-2.5c-4.2,0-7.4,1.4-9.6,4.1-1,1.2-1.6,2.7-1.9,4.3h-1.5l3.5-10.5h34.7l3.4,10.4M281.9,471h-5.3c-2,0-3.6-1-4.8-2.9,0-.2-.2-.3-.3-.5l-10.6-18.5h-6.4v18.1c0,1,.4,1.6,1.3,2,.2.1.5.2.8.2h3.1v1.6h-15.3v-1.6h3.2c.8,0,1.5-.5,1.9-1.4.1-.3.2-.6.2-.8v-31.9c0-.9-.4-1.6-1.3-2-.3-.2-.6-.2-.8-.2h-3.2v-1.6h19.1c5,0,8.2,1.5,9.7,4.6.4.8.6,1.8.7,2.8v2.5c-.4,3.9-2.5,6.4-6.1,7.4-.6.2-1.2.3-1.8.4l10.4,17.7c.8,1.4,2,2.4,3.6,2.9.4.2.9.2,1.3.2h.8v1.2M268.7,438.9c0-2.4-1.3-4.1-4-5-1-.4-2.1-.5-3.3-.5h-6.9v14h6.8c4.1,0,6.5-1.9,7.1-5.7l.2-2.8M314.2,459.2l-3.1,11.8h-29v-1.6h3.2c.8,0,1.5-.5,1.9-1.4.1-.3.2-.6.2-.8v-32c0-.8-.4-1.5-1.3-2-.3-.2-.6-.2-.8-.2h-3.2v-1.6h29.5l2.6,12h-1.4l-.8-1.8c-1.8-4.2-4-6.7-6.7-7.7-1-.4-2-.5-3.2-.5h-7.7c-1.1,0-1.8.7-2.2,2.1,0,.3-.1.6-.1.9v12h6c1.9,0,3.5-.8,4.8-2.4.8-1,1.1-2,1.1-3.1v-1.1h1.3v15.2h-1.3v-1.1c0-1.8-.9-3.4-2.6-4.7-1-.8-2.1-1.2-3.3-1.2h-6v16c0,1.4.5,2.4,1.4,2.8.2.1.5.2.8.2h7.7c4.4,0,7.8-2.6,10-7.9l.8-1.9h1.4M360.9,471h-13.6v-1.7h2.4c.7,0,1.1-.3,1.3-1v-.8l-5.4-15.4h-11.7l-5,12.4c-.2.4-.2.8-.2,1.2s0,1,.3,1.5c.6,1.4,1.5,2.1,2.8,2.1h2.2v1.7h-14v-1.7h2.2c1.3,0,2.5-.9,3.5-2.7.1-.3.2-.5.4-.8l13.4-31.9-.6-1.8,4.1-2.3,13.3,37.1c.4,1,1.2,1.8,2.6,2.2.4.1.8.2,1.1.2h1.1v1.7M345,450.5l-4.7-14-5.8,14h10.5M399.4,450.2l-.2,2.9c-.8,4.9-3.1,9.1-7.1,12.5-4.2,3.6-9,5.3-14.5,5.3h-16.9v-1.6h3.2c.8,0,1.5-.5,1.9-1.4.1-.3.2-.6.2-.8v-32c0-.8-.4-1.5-1.3-2-.3-.2-.6-.2-.8-.2h-3.2v-1.6h22.9c6.2,0,10.6,2.8,13.4,8.3,1.6,3.1,2.4,6.6,2.5,10.5M394.2,449.5c-.4-5.5-2-9.7-4.9-12.8-2.2-2.2-4.8-3.4-7.8-3.4h-8.6c-1,0-1.7.7-2.1,2,0,.3,0,.6,0,1v29.7c0,1.3.4,2.2,1.3,2.8.3.2.6.2.9.2h5.6c4.7,0,8.6-2,11.6-6.1,2.6-3.5,4-7.5,4-12.2v-1.3M437.1,472.3c-6.9,0-12.2-2.5-16-7.6-2.7-3.7-4.1-8.1-4.1-13.1s.7-6.9,2.2-10c2.5-5.2,6.4-8.5,11.8-10,1.9-.5,3.9-.8,6.1-.8,6.9,0,12.2,2.5,15.9,7.6,2.7,3.7,4.1,8.1,4.1,13.1s-.2,4.3-.8,6.3c-1.5,5.4-4.5,9.4-9.1,12-2.9,1.6-6.3,2.5-10.1,2.5M437.1,471h0c5,0,8.9-2.4,11.6-7.3,1.9-3.4,2.8-7.5,2.8-12.1s-.3-5.1-1-7.5c-1.5-5.4-4.2-9-8-10.9s-3.4-1.2-5.3-1.2c-5,0-8.8,2.4-11.5,7.3-1.9,3.5-2.8,7.5-2.8,12.1s1.3,10,3.8,13.7c2.6,3.9,6.1,5.8,10.5,5.8M504.1,433h-2.9c-1.7,0-2.9,1.1-3.5,3.2-.2.8-.4,1.5-.4,2.3v32.5h-3.8l-23.3-35.9v28.7c0,1.8.6,3.3,1.7,4.5.6.7,1.4,1,2.2,1h2.3v1.7h-14.3v-1.7h2.9c1.6,0,2.7-1,3.5-3.1.3-.8.4-1.6.4-2.4v-28.6c0-.9-.4-1.5-1.3-2-.3-.2-.6-.2-.8-.2h-3.1v-1.6h9.4l23,34.9v-27.7c0-2.1-.6-3.7-1.7-4.7-.6-.5-1.3-.8-2.1-.8h-2.3v-1.7h14.3v1.7M567.5,471h-15.4v-1.6h3.2c.8,0,1.5-.5,1.9-1.4.2-.3.2-.6.2-.8v-32.6l-13.9,36.4h-3.4l-14-35.6v28.4c0,1.9.6,3.4,1.7,4.6.6.6,1.4,1,2.2,1h2.2v1.7h-14.3v-1.7h2.9c1.6,0,2.7-1.1,3.4-3.2.3-.8.4-1.6.4-2.3v-28.6c0-.8-.4-1.5-1.3-2-.3-.2-.6-.2-.8-.2h-3.2v-1.6h10.4l14.2,35.9,13.7-35.9h9.7v1.6h-3.2c-.9,0-1.5.5-1.9,1.4,0,.2-.2.5-.2.8v32c0,1,.4,1.6,1.3,2,.2.1.5.2.8.2h3.2v1.6M600.2,459.2l-3.1,11.8h-29v-1.6h3.2c.8,0,1.5-.5,1.9-1.4,0-.3.2-.6.2-.8v-32c0-.8-.4-1.5-1.3-2-.3-.2-.6-.2-.8-.2h-3.2v-1.6h29.5l2.6,12h-1.4l-.8-1.8c-1.8-4.2-4-6.7-6.7-7.7-1-.4-2-.5-3.2-.5h-7.7c-1.1,0-1.8.7-2.2,2.1,0,.3,0,.6,0,.9v12h6c1.9,0,3.5-.8,4.8-2.4.8-1,1.1-2,1.1-3.1v-1.1h1.3v15.2h-1.3v-1.1c0-1.8-.9-3.4-2.6-4.7-1-.8-2.1-1.2-3.3-1.2h-6v16c0,1.4.5,2.4,1.4,2.8.2.1.5.2.8.2h7.7c4.4,0,7.8-2.6,10-7.9l.8-1.9h1.4"/>
        </g>
      </g>
    </g>
  </g>
</svg>